# Generated by agri_ugv_terrain
v -15.0000 -3.0000 -1.5000
v -14.5000 -3.0000 -1.4500
v -14.0000 -3.0000 -1.4000
v -13.5000 -3.0000 -1.3500
v -13.0000 -3.0000 -1.3000
v -12.5000 -3.0000 -1.2500
v -12.0000 -3.0000 -1.2000
v -11.5000 -3.0000 -1.1500
v -11.0000 -3.0000 -1.1000
v -10.5000 -3.0000 -1.0500
v -10.0000 -3.0000 -1.0000
v -9.5000 -3.0000 -0.9500
v -9.0000 -3.0000 -0.9000
v -8.5000 -3.0000 -0.8500
v -8.0000 -3.0000 -0.8000
v -7.5000 -3.0000 -0.7500
v -7.0000 -3.0000 -0.7000
v -6.5000 -3.0000 -0.6500
v -6.0000 -3.0000 -0.6000
v -5.5000 -3.0000 -0.5500
v -5.0000 -3.0000 -0.5000
v -4.5000 -3.0000 -0.4500
v -4.0000 -3.0000 -0.4000
v -3.5000 -3.0000 -0.3500
v -3.0000 -3.0000 -0.3000
v -2.5000 -3.0000 -0.2500
v -2.0000 -3.0000 -0.2000
v -1.5000 -3.0000 -0.1500
v -1.0000 -3.0000 -0.1000
v -0.5000 -3.0000 -0.0500
v 0.0000 -3.0000 0.0000
v 0.5000 -3.0000 0.0500
v 1.0000 -3.0000 0.1000
v 1.5000 -3.0000 0.1500
v 2.0000 -3.0000 0.2000
v 2.5000 -3.0000 0.2500
v 3.0000 -3.0000 0.3000
v 3.5000 -3.0000 0.3500
v 4.0000 -3.0000 0.4000
v 4.5000 -3.0000 0.4500
v 5.0000 -3.0000 0.5000
v 5.5000 -3.0000 0.5500
v 6.0000 -3.0000 0.6000
v 6.5000 -3.0000 0.6500
v 7.0000 -3.0000 0.7000
v 7.5000 -3.0000 0.7500
v 8.0000 -3.0000 0.8000
v 8.5000 -3.0000 0.8500
v 9.0000 -3.0000 0.9000
v 9.5000 -3.0000 0.9500
v 10.0000 -3.0000 1.0000
v 10.5000 -3.0000 1.0500
v 11.0000 -3.0000 1.1000
v 11.5000 -3.0000 1.1500
v 12.0000 -3.0000 1.2000
v 12.5000 -3.0000 1.2500
v 13.0000 -3.0000 1.3000
v 13.5000 -3.0000 1.3500
v 14.0000 -3.0000 1.4000
v 14.5000 -3.0000 1.4500
v 15.0000 -3.0000 1.5000
v -15.0000 -2.5000 -1.5000
v -14.5000 -2.5000 -1.4500
v -14.0000 -2.5000 -1.4000
v -13.5000 -2.5000 -1.3500
v -13.0000 -2.5000 -1.3000
v -12.5000 -2.5000 -1.2500
v -12.0000 -2.5000 -1.2000
v -11.5000 -2.5000 -1.1500
v -11.0000 -2.5000 -1.1000
v -10.5000 -2.5000 -1.0500
v -10.0000 -2.5000 -1.0000
v -9.5000 -2.5000 -0.9500
v -9.0000 -2.5000 -0.9000
v -8.5000 -2.5000 -0.8500
v -8.0000 -2.5000 -0.8000
v -7.5000 -2.5000 -0.7500
v -7.0000 -2.5000 -0.7000
v -6.5000 -2.5000 -0.6500
v -6.0000 -2.5000 -0.6000
v -5.5000 -2.5000 -0.5500
v -5.0000 -2.5000 -0.5000
v -4.5000 -2.5000 -0.4500
v -4.0000 -2.5000 -0.4000
v -3.5000 -2.5000 -0.3500
v -3.0000 -2.5000 -0.3000
v -2.5000 -2.5000 -0.2500
v -2.0000 -2.5000 -0.2000
v -1.5000 -2.5000 -0.1500
v -1.0000 -2.5000 -0.1000
v -0.5000 -2.5000 -0.0500
v 0.0000 -2.5000 0.0000
v 0.5000 -2.5000 0.0500
v 1.0000 -2.5000 0.1000
v 1.5000 -2.5000 0.1500
v 2.0000 -2.5000 0.2000
v 2.5000 -2.5000 0.2500
v 3.0000 -2.5000 0.3000
v 3.5000 -2.5000 0.3500
v 4.0000 -2.5000 0.4000
v 4.5000 -2.5000 0.4500
v 5.0000 -2.5000 0.5000
v 5.5000 -2.5000 0.5500
v 6.0000 -2.5000 0.6000
v 6.5000 -2.5000 0.6500
v 7.0000 -2.5000 0.7000
v 7.5000 -2.5000 0.7500
v 8.0000 -2.5000 0.8000
v 8.5000 -2.5000 0.8500
v 9.0000 -2.5000 0.9000
v 9.5000 -2.5000 0.9500
v 10.0000 -2.5000 1.0000
v 10.5000 -2.5000 1.0500
v 11.0000 -2.5000 1.1000
v 11.5000 -2.5000 1.1500
v 12.0000 -2.5000 1.2000
v 12.5000 -2.5000 1.2500
v 13.0000 -2.5000 1.3000
v 13.5000 -2.5000 1.3500
v 14.0000 -2.5000 1.4000
v 14.5000 -2.5000 1.4500
v 15.0000 -2.5000 1.5000
v -15.0000 -2.0000 -1.5000
v -14.5000 -2.0000 -1.4500
v -14.0000 -2.0000 -1.4000
v -13.5000 -2.0000 -1.3500
v -13.0000 -2.0000 -1.3000
v -12.5000 -2.0000 -1.2500
v -12.0000 -2.0000 -1.2000
v -11.5000 -2.0000 -1.1500
v -11.0000 -2.0000 -1.1000
v -10.5000 -2.0000 -1.0500
v -10.0000 -2.0000 -1.0000
v -9.5000 -2.0000 -0.9500
v -9.0000 -2.0000 -0.9000
v -8.5000 -2.0000 -0.8500
v -8.0000 -2.0000 -0.8000
v -7.5000 -2.0000 -0.7500
v -7.0000 -2.0000 -0.7000
v -6.5000 -2.0000 -0.6500
v -6.0000 -2.0000 -0.6000
v -5.5000 -2.0000 -0.5500
v -5.0000 -2.0000 -0.5000
v -4.5000 -2.0000 -0.4500
v -4.0000 -2.0000 -0.4000
v -3.5000 -2.0000 -0.3500
v -3.0000 -2.0000 -0.3000
v -2.5000 -2.0000 -0.2500
v -2.0000 -2.0000 -0.2000
v -1.5000 -2.0000 -0.1500
v -1.0000 -2.0000 -0.1000
v -0.5000 -2.0000 -0.0500
v 0.0000 -2.0000 0.0000
v 0.5000 -2.0000 0.0500
v 1.0000 -2.0000 0.1000
v 1.5000 -2.0000 0.1500
v 2.0000 -2.0000 0.2000
v 2.5000 -2.0000 0.2500
v 3.0000 -2.0000 0.3000
v 3.5000 -2.0000 0.3500
v 4.0000 -2.0000 0.4000
v 4.5000 -2.0000 0.4500
v 5.0000 -2.0000 0.5000
v 5.5000 -2.0000 0.5500
v 6.0000 -2.0000 0.6000
v 6.5000 -2.0000 0.6500
v 7.0000 -2.0000 0.7000
v 7.5000 -2.0000 0.7500
v 8.0000 -2.0000 0.8000
v 8.5000 -2.0000 0.8500
v 9.0000 -2.0000 0.9000
v 9.5000 -2.0000 0.9500
v 10.0000 -2.0000 1.0000
v 10.5000 -2.0000 1.0500
v 11.0000 -2.0000 1.1000
v 11.5000 -2.0000 1.1500
v 12.0000 -2.0000 1.2000
v 12.5000 -2.0000 1.2500
v 13.0000 -2.0000 1.3000
v 13.5000 -2.0000 1.3500
v 14.0000 -2.0000 1.4000
v 14.5000 -2.0000 1.4500
v 15.0000 -2.0000 1.5000
v -15.0000 -1.5000 -1.5000
v -14.5000 -1.5000 -1.4500
v -14.0000 -1.5000 -1.4000
v -13.5000 -1.5000 -1.3500
v -13.0000 -1.5000 -1.3000
v -12.5000 -1.5000 -1.2500
v -12.0000 -1.5000 -1.2000
v -11.5000 -1.5000 -1.1500
v -11.0000 -1.5000 -1.1000
v -10.5000 -1.5000 -1.0500
v -10.0000 -1.5000 -1.0000
v -9.5000 -1.5000 -0.9500
v -9.0000 -1.5000 -0.9000
v -8.5000 -1.5000 -0.8500
v -8.0000 -1.5000 -0.8000
v -7.5000 -1.5000 -0.7500
v -7.0000 -1.5000 -0.7000
v -6.5000 -1.5000 -0.6500
v -6.0000 -1.5000 -0.6000
v -5.5000 -1.5000 -0.5500
v -5.0000 -1.5000 -0.5000
v -4.5000 -1.5000 -0.4500
v -4.0000 -1.5000 -0.4000
v -3.5000 -1.5000 -0.3500
v -3.0000 -1.5000 -0.3000
v -2.5000 -1.5000 -0.2500
v -2.0000 -1.5000 -0.2000
v -1.5000 -1.5000 -0.1500
v -1.0000 -1.5000 -0.1000
v -0.5000 -1.5000 -0.0500
v 0.0000 -1.5000 0.0000
v 0.5000 -1.5000 0.0500
v 1.0000 -1.5000 0.1000
v 1.5000 -1.5000 0.1500
v 2.0000 -1.5000 0.2000
v 2.5000 -1.5000 0.2500
v 3.0000 -1.5000 0.3000
v 3.5000 -1.5000 0.3500
v 4.0000 -1.5000 0.4000
v 4.5000 -1.5000 0.4500
v 5.0000 -1.5000 0.5000
v 5.5000 -1.5000 0.5500
v 6.0000 -1.5000 0.6000
v 6.5000 -1.5000 0.6500
v 7.0000 -1.5000 0.7000
v 7.5000 -1.5000 0.7500
v 8.0000 -1.5000 0.8000
v 8.5000 -1.5000 0.8500
v 9.0000 -1.5000 0.9000
v 9.5000 -1.5000 0.9500
v 10.0000 -1.5000 1.0000
v 10.5000 -1.5000 1.0500
v 11.0000 -1.5000 1.1000
v 11.5000 -1.5000 1.1500
v 12.0000 -1.5000 1.2000
v 12.5000 -1.5000 1.2500
v 13.0000 -1.5000 1.3000
v 13.5000 -1.5000 1.3500
v 14.0000 -1.5000 1.4000
v 14.5000 -1.5000 1.4500
v 15.0000 -1.5000 1.5000
v -15.0000 -1.0000 -1.5000
v -14.5000 -1.0000 -1.4500
v -14.0000 -1.0000 -1.4000
v -13.5000 -1.0000 -1.3500
v -13.0000 -1.0000 -1.3000
v -12.5000 -1.0000 -1.2500
v -12.0000 -1.0000 -1.2000
v -11.5000 -1.0000 -1.1500
v -11.0000 -1.0000 -1.1000
v -10.5000 -1.0000 -1.0500
v -10.0000 -1.0000 -1.0000
v -9.5000 -1.0000 -0.9500
v -9.0000 -1.0000 -0.9000
v -8.5000 -1.0000 -0.8500
v -8.0000 -1.0000 -0.8000
v -7.5000 -1.0000 -0.7500
v -7.0000 -1.0000 -0.7000
v -6.5000 -1.0000 -0.6500
v -6.0000 -1.0000 -0.6000
v -5.5000 -1.0000 -0.5500
v -5.0000 -1.0000 -0.5000
v -4.5000 -1.0000 -0.4500
v -4.0000 -1.0000 -0.4000
v -3.5000 -1.0000 -0.3500
v -3.0000 -1.0000 -0.3000
v -2.5000 -1.0000 -0.2500
v -2.0000 -1.0000 -0.2000
v -1.5000 -1.0000 -0.1500
v -1.0000 -1.0000 -0.1000
v -0.5000 -1.0000 -0.0500
v 0.0000 -1.0000 0.0000
v 0.5000 -1.0000 0.0500
v 1.0000 -1.0000 0.1000
v 1.5000 -1.0000 0.1500
v 2.0000 -1.0000 0.2000
v 2.5000 -1.0000 0.2500
v 3.0000 -1.0000 0.3000
v 3.5000 -1.0000 0.3500
v 4.0000 -1.0000 0.4000
v 4.5000 -1.0000 0.4500
v 5.0000 -1.0000 0.5000
v 5.5000 -1.0000 0.5500
v 6.0000 -1.0000 0.6000
v 6.5000 -1.0000 0.6500
v 7.0000 -1.0000 0.7000
v 7.5000 -1.0000 0.7500
v 8.0000 -1.0000 0.8000
v 8.5000 -1.0000 0.8500
v 9.0000 -1.0000 0.9000
v 9.5000 -1.0000 0.9500
v 10.0000 -1.0000 1.0000
v 10.5000 -1.0000 1.0500
v 11.0000 -1.0000 1.1000
v 11.5000 -1.0000 1.1500
v 12.0000 -1.0000 1.2000
v 12.5000 -1.0000 1.2500
v 13.0000 -1.0000 1.3000
v 13.5000 -1.0000 1.3500
v 14.0000 -1.0000 1.4000
v 14.5000 -1.0000 1.4500
v 15.0000 -1.0000 1.5000
v -15.0000 -0.5000 -1.5000
v -14.5000 -0.5000 -1.4500
v -14.0000 -0.5000 -1.4000
v -13.5000 -0.5000 -1.3500
v -13.0000 -0.5000 -1.3000
v -12.5000 -0.5000 -1.2500
v -12.0000 -0.5000 -1.2000
v -11.5000 -0.5000 -1.1500
v -11.0000 -0.5000 -1.1000
v -10.5000 -0.5000 -1.0500
v -10.0000 -0.5000 -1.0000
v -9.5000 -0.5000 -0.9500
v -9.0000 -0.5000 -0.9000
v -8.5000 -0.5000 -0.8500
v -8.0000 -0.5000 -0.8000
v -7.5000 -0.5000 -0.7500
v -7.0000 -0.5000 -0.7000
v -6.5000 -0.5000 -0.6500
v -6.0000 -0.5000 -0.6000
v -5.5000 -0.5000 -0.5500
v -5.0000 -0.5000 -0.5000
v -4.5000 -0.5000 -0.4500
v -4.0000 -0.5000 -0.4000
v -3.5000 -0.5000 -0.3500
v -3.0000 -0.5000 -0.3000
v -2.5000 -0.5000 -0.2500
v -2.0000 -0.5000 -0.2000
v -1.5000 -0.5000 -0.1500
v -1.0000 -0.5000 -0.1000
v -0.5000 -0.5000 -0.0500
v 0.0000 -0.5000 0.0000
v 0.5000 -0.5000 0.0500
v 1.0000 -0.5000 0.1000
v 1.5000 -0.5000 0.1500
v 2.0000 -0.5000 0.2000
v 2.5000 -0.5000 0.2500
v 3.0000 -0.5000 0.3000
v 3.5000 -0.5000 0.3500
v 4.0000 -0.5000 0.4000
v 4.5000 -0.5000 0.4500
v 5.0000 -0.5000 0.5000
v 5.5000 -0.5000 0.5500
v 6.0000 -0.5000 0.6000
v 6.5000 -0.5000 0.6500
v 7.0000 -0.5000 0.7000
v 7.5000 -0.5000 0.7500
v 8.0000 -0.5000 0.8000
v 8.5000 -0.5000 0.8500
v 9.0000 -0.5000 0.9000
v 9.5000 -0.5000 0.9500
v 10.0000 -0.5000 1.0000
v 10.5000 -0.5000 1.0500
v 11.0000 -0.5000 1.1000
v 11.5000 -0.5000 1.1500
v 12.0000 -0.5000 1.2000
v 12.5000 -0.5000 1.2500
v 13.0000 -0.5000 1.3000
v 13.5000 -0.5000 1.3500
v 14.0000 -0.5000 1.4000
v 14.5000 -0.5000 1.4500
v 15.0000 -0.5000 1.5000
v -15.0000 0.0000 -1.5000
v -14.5000 0.0000 -1.4500
v -14.0000 0.0000 -1.4000
v -13.5000 0.0000 -1.3500
v -13.0000 0.0000 -1.3000
v -12.5000 0.0000 -1.2500
v -12.0000 0.0000 -1.2000
v -11.5000 0.0000 -1.1500
v -11.0000 0.0000 -1.1000
v -10.5000 0.0000 -1.0500
v -10.0000 0.0000 -1.0000
v -9.5000 0.0000 -0.9500
v -9.0000 0.0000 -0.9000
v -8.5000 0.0000 -0.8500
v -8.0000 0.0000 -0.8000
v -7.5000 0.0000 -0.7500
v -7.0000 0.0000 -0.7000
v -6.5000 0.0000 -0.6500
v -6.0000 0.0000 -0.6000
v -5.5000 0.0000 -0.5500
v -5.0000 0.0000 -0.5000
v -4.5000 0.0000 -0.4500
v -4.0000 0.0000 -0.4000
v -3.5000 0.0000 -0.3500
v -3.0000 0.0000 -0.3000
v -2.5000 0.0000 -0.2500
v -2.0000 0.0000 -0.2000
v -1.5000 0.0000 -0.1500
v -1.0000 0.0000 -0.1000
v -0.5000 0.0000 -0.0500
v 0.0000 0.0000 0.0000
v 0.5000 0.0000 0.0500
v 1.0000 0.0000 0.1000
v 1.5000 0.0000 0.1500
v 2.0000 0.0000 0.2000
v 2.5000 0.0000 0.2500
v 3.0000 0.0000 0.3000
v 3.5000 0.0000 0.3500
v 4.0000 0.0000 0.4000
v 4.5000 0.0000 0.4500
v 5.0000 0.0000 0.5000
v 5.5000 0.0000 0.5500
v 6.0000 0.0000 0.6000
v 6.5000 0.0000 0.6500
v 7.0000 0.0000 0.7000
v 7.5000 0.0000 0.7500
v 8.0000 0.0000 0.8000
v 8.5000 0.0000 0.8500
v 9.0000 0.0000 0.9000
v 9.5000 0.0000 0.9500
v 10.0000 0.0000 1.0000
v 10.5000 0.0000 1.0500
v 11.0000 0.0000 1.1000
v 11.5000 0.0000 1.1500
v 12.0000 0.0000 1.2000
v 12.5000 0.0000 1.2500
v 13.0000 0.0000 1.3000
v 13.5000 0.0000 1.3500
v 14.0000 0.0000 1.4000
v 14.5000 0.0000 1.4500
v 15.0000 0.0000 1.5000
v -15.0000 0.5000 -1.5000
v -14.5000 0.5000 -1.4500
v -14.0000 0.5000 -1.4000
v -13.5000 0.5000 -1.3500
v -13.0000 0.5000 -1.3000
v -12.5000 0.5000 -1.2500
v -12.0000 0.5000 -1.2000
v -11.5000 0.5000 -1.1500
v -11.0000 0.5000 -1.1000
v -10.5000 0.5000 -1.0500
v -10.0000 0.5000 -1.0000
v -9.5000 0.5000 -0.9500
v -9.0000 0.5000 -0.9000
v -8.5000 0.5000 -0.8500
v -8.0000 0.5000 -0.8000
v -7.5000 0.5000 -0.7500
v -7.0000 0.5000 -0.7000
v -6.5000 0.5000 -0.6500
v -6.0000 0.5000 -0.6000
v -5.5000 0.5000 -0.5500
v -5.0000 0.5000 -0.5000
v -4.5000 0.5000 -0.4500
v -4.0000 0.5000 -0.4000
v -3.5000 0.5000 -0.3500
v -3.0000 0.5000 -0.3000
v -2.5000 0.5000 -0.2500
v -2.0000 0.5000 -0.2000
v -1.5000 0.5000 -0.1500
v -1.0000 0.5000 -0.1000
v -0.5000 0.5000 -0.0500
v 0.0000 0.5000 0.0000
v 0.5000 0.5000 0.0500
v 1.0000 0.5000 0.1000
v 1.5000 0.5000 0.1500
v 2.0000 0.5000 0.2000
v 2.5000 0.5000 0.2500
v 3.0000 0.5000 0.3000
v 3.5000 0.5000 0.3500
v 4.0000 0.5000 0.4000
v 4.5000 0.5000 0.4500
v 5.0000 0.5000 0.5000
v 5.5000 0.5000 0.5500
v 6.0000 0.5000 0.6000
v 6.5000 0.5000 0.6500
v 7.0000 0.5000 0.7000
v 7.5000 0.5000 0.7500
v 8.0000 0.5000 0.8000
v 8.5000 0.5000 0.8500
v 9.0000 0.5000 0.9000
v 9.5000 0.5000 0.9500
v 10.0000 0.5000 1.0000
v 10.5000 0.5000 1.0500
v 11.0000 0.5000 1.1000
v 11.5000 0.5000 1.1500
v 12.0000 0.5000 1.2000
v 12.5000 0.5000 1.2500
v 13.0000 0.5000 1.3000
v 13.5000 0.5000 1.3500
v 14.0000 0.5000 1.4000
v 14.5000 0.5000 1.4500
v 15.0000 0.5000 1.5000
v -15.0000 1.0000 -1.5000
v -14.5000 1.0000 -1.4500
v -14.0000 1.0000 -1.4000
v -13.5000 1.0000 -1.3500
v -13.0000 1.0000 -1.3000
v -12.5000 1.0000 -1.2500
v -12.0000 1.0000 -1.2000
v -11.5000 1.0000 -1.1500
v -11.0000 1.0000 -1.1000
v -10.5000 1.0000 -1.0500
v -10.0000 1.0000 -1.0000
v -9.5000 1.0000 -0.9500
v -9.0000 1.0000 -0.9000
v -8.5000 1.0000 -0.8500
v -8.0000 1.0000 -0.8000
v -7.5000 1.0000 -0.7500
v -7.0000 1.0000 -0.7000
v -6.5000 1.0000 -0.6500
v -6.0000 1.0000 -0.6000
v -5.5000 1.0000 -0.5500
v -5.0000 1.0000 -0.5000
v -4.5000 1.0000 -0.4500
v -4.0000 1.0000 -0.4000
v -3.5000 1.0000 -0.3500
v -3.0000 1.0000 -0.3000
v -2.5000 1.0000 -0.2500
v -2.0000 1.0000 -0.2000
v -1.5000 1.0000 -0.1500
v -1.0000 1.0000 -0.1000
v -0.5000 1.0000 -0.0500
v 0.0000 1.0000 0.0000
v 0.5000 1.0000 0.0500
v 1.0000 1.0000 0.1000
v 1.5000 1.0000 0.1500
v 2.0000 1.0000 0.2000
v 2.5000 1.0000 0.2500
v 3.0000 1.0000 0.3000
v 3.5000 1.0000 0.3500
v 4.0000 1.0000 0.4000
v 4.5000 1.0000 0.4500
v 5.0000 1.0000 0.5000
v 5.5000 1.0000 0.5500
v 6.0000 1.0000 0.6000
v 6.5000 1.0000 0.6500
v 7.0000 1.0000 0.7000
v 7.5000 1.0000 0.7500
v 8.0000 1.0000 0.8000
v 8.5000 1.0000 0.8500
v 9.0000 1.0000 0.9000
v 9.5000 1.0000 0.9500
v 10.0000 1.0000 1.0000
v 10.5000 1.0000 1.0500
v 11.0000 1.0000 1.1000
v 11.5000 1.0000 1.1500
v 12.0000 1.0000 1.2000
v 12.5000 1.0000 1.2500
v 13.0000 1.0000 1.3000
v 13.5000 1.0000 1.3500
v 14.0000 1.0000 1.4000
v 14.5000 1.0000 1.4500
v 15.0000 1.0000 1.5000
v -15.0000 1.5000 -1.5000
v -14.5000 1.5000 -1.4500
v -14.0000 1.5000 -1.4000
v -13.5000 1.5000 -1.3500
v -13.0000 1.5000 -1.3000
v -12.5000 1.5000 -1.2500
v -12.0000 1.5000 -1.2000
v -11.5000 1.5000 -1.1500
v -11.0000 1.5000 -1.1000
v -10.5000 1.5000 -1.0500
v -10.0000 1.5000 -1.0000
v -9.5000 1.5000 -0.9500
v -9.0000 1.5000 -0.9000
v -8.5000 1.5000 -0.8500
v -8.0000 1.5000 -0.8000
v -7.5000 1.5000 -0.7500
v -7.0000 1.5000 -0.7000
v -6.5000 1.5000 -0.6500
v -6.0000 1.5000 -0.6000
v -5.5000 1.5000 -0.5500
v -5.0000 1.5000 -0.5000
v -4.5000 1.5000 -0.4500
v -4.0000 1.5000 -0.4000
v -3.5000 1.5000 -0.3500
v -3.0000 1.5000 -0.3000
v -2.5000 1.5000 -0.2500
v -2.0000 1.5000 -0.2000
v -1.5000 1.5000 -0.1500
v -1.0000 1.5000 -0.1000
v -0.5000 1.5000 -0.0500
v 0.0000 1.5000 0.0000
v 0.5000 1.5000 0.0500
v 1.0000 1.5000 0.1000
v 1.5000 1.5000 0.1500
v 2.0000 1.5000 0.2000
v 2.5000 1.5000 0.2500
v 3.0000 1.5000 0.3000
v 3.5000 1.5000 0.3500
v 4.0000 1.5000 0.4000
v 4.5000 1.5000 0.4500
v 5.0000 1.5000 0.5000
v 5.5000 1.5000 0.5500
v 6.0000 1.5000 0.6000
v 6.5000 1.5000 0.6500
v 7.0000 1.5000 0.7000
v 7.5000 1.5000 0.7500
v 8.0000 1.5000 0.8000
v 8.5000 1.5000 0.8500
v 9.0000 1.5000 0.9000
v 9.5000 1.5000 0.9500
v 10.0000 1.5000 1.0000
v 10.5000 1.5000 1.0500
v 11.0000 1.5000 1.1000
v 11.5000 1.5000 1.1500
v 12.0000 1.5000 1.2000
v 12.5000 1.5000 1.2500
v 13.0000 1.5000 1.3000
v 13.5000 1.5000 1.3500
v 14.0000 1.5000 1.4000
v 14.5000 1.5000 1.4500
v 15.0000 1.5000 1.5000
v -15.0000 2.0000 -1.5000
v -14.5000 2.0000 -1.4500
v -14.0000 2.0000 -1.4000
v -13.5000 2.0000 -1.3500
v -13.0000 2.0000 -1.3000
v -12.5000 2.0000 -1.2500
v -12.0000 2.0000 -1.2000
v -11.5000 2.0000 -1.1500
v -11.0000 2.0000 -1.1000
v -10.5000 2.0000 -1.0500
v -10.0000 2.0000 -1.0000
v -9.5000 2.0000 -0.9500
v -9.0000 2.0000 -0.9000
v -8.5000 2.0000 -0.8500
v -8.0000 2.0000 -0.8000
v -7.5000 2.0000 -0.7500
v -7.0000 2.0000 -0.7000
v -6.5000 2.0000 -0.6500
v -6.0000 2.0000 -0.6000
v -5.5000 2.0000 -0.5500
v -5.0000 2.0000 -0.5000
v -4.5000 2.0000 -0.4500
v -4.0000 2.0000 -0.4000
v -3.5000 2.0000 -0.3500
v -3.0000 2.0000 -0.3000
v -2.5000 2.0000 -0.2500
v -2.0000 2.0000 -0.2000
v -1.5000 2.0000 -0.1500
v -1.0000 2.0000 -0.1000
v -0.5000 2.0000 -0.0500
v 0.0000 2.0000 0.0000
v 0.5000 2.0000 0.0500
v 1.0000 2.0000 0.1000
v 1.5000 2.0000 0.1500
v 2.0000 2.0000 0.2000
v 2.5000 2.0000 0.2500
v 3.0000 2.0000 0.3000
v 3.5000 2.0000 0.3500
v 4.0000 2.0000 0.4000
v 4.5000 2.0000 0.4500
v 5.0000 2.0000 0.5000
v 5.5000 2.0000 0.5500
v 6.0000 2.0000 0.6000
v 6.5000 2.0000 0.6500
v 7.0000 2.0000 0.7000
v 7.5000 2.0000 0.7500
v 8.0000 2.0000 0.8000
v 8.5000 2.0000 0.8500
v 9.0000 2.0000 0.9000
v 9.5000 2.0000 0.9500
v 10.0000 2.0000 1.0000
v 10.5000 2.0000 1.0500
v 11.0000 2.0000 1.1000
v 11.5000 2.0000 1.1500
v 12.0000 2.0000 1.2000
v 12.5000 2.0000 1.2500
v 13.0000 2.0000 1.3000
v 13.5000 2.0000 1.3500
v 14.0000 2.0000 1.4000
v 14.5000 2.0000 1.4500
v 15.0000 2.0000 1.5000
v -15.0000 2.5000 -1.5000
v -14.5000 2.5000 -1.4500
v -14.0000 2.5000 -1.4000
v -13.5000 2.5000 -1.3500
v -13.0000 2.5000 -1.3000
v -12.5000 2.5000 -1.2500
v -12.0000 2.5000 -1.2000
v -11.5000 2.5000 -1.1500
v -11.0000 2.5000 -1.1000
v -10.5000 2.5000 -1.0500
v -10.0000 2.5000 -1.0000
v -9.5000 2.5000 -0.9500
v -9.0000 2.5000 -0.9000
v -8.5000 2.5000 -0.8500
v -8.0000 2.5000 -0.8000
v -7.5000 2.5000 -0.7500
v -7.0000 2.5000 -0.7000
v -6.5000 2.5000 -0.6500
v -6.0000 2.5000 -0.6000
v -5.5000 2.5000 -0.5500
v -5.0000 2.5000 -0.5000
v -4.5000 2.5000 -0.4500
v -4.0000 2.5000 -0.4000
v -3.5000 2.5000 -0.3500
v -3.0000 2.5000 -0.3000
v -2.5000 2.5000 -0.2500
v -2.0000 2.5000 -0.2000
v -1.5000 2.5000 -0.1500
v -1.0000 2.5000 -0.1000
v -0.5000 2.5000 -0.0500
v 0.0000 2.5000 0.0000
v 0.5000 2.5000 0.0500
v 1.0000 2.5000 0.1000
v 1.5000 2.5000 0.1500
v 2.0000 2.5000 0.2000
v 2.5000 2.5000 0.2500
v 3.0000 2.5000 0.3000
v 3.5000 2.5000 0.3500
v 4.0000 2.5000 0.4000
v 4.5000 2.5000 0.4500
v 5.0000 2.5000 0.5000
v 5.5000 2.5000 0.5500
v 6.0000 2.5000 0.6000
v 6.5000 2.5000 0.6500
v 7.0000 2.5000 0.7000
v 7.5000 2.5000 0.7500
v 8.0000 2.5000 0.8000
v 8.5000 2.5000 0.8500
v 9.0000 2.5000 0.9000
v 9.5000 2.5000 0.9500
v 10.0000 2.5000 1.0000
v 10.5000 2.5000 1.0500
v 11.0000 2.5000 1.1000
v 11.5000 2.5000 1.1500
v 12.0000 2.5000 1.2000
v 12.5000 2.5000 1.2500
v 13.0000 2.5000 1.3000
v 13.5000 2.5000 1.3500
v 14.0000 2.5000 1.4000
v 14.5000 2.5000 1.4500
v 15.0000 2.5000 1.5000
v -15.0000 3.0000 -1.5000
v -14.5000 3.0000 -1.4500
v -14.0000 3.0000 -1.4000
v -13.5000 3.0000 -1.3500
v -13.0000 3.0000 -1.3000
v -12.5000 3.0000 -1.2500
v -12.0000 3.0000 -1.2000
v -11.5000 3.0000 -1.1500
v -11.0000 3.0000 -1.1000
v -10.5000 3.0000 -1.0500
v -10.0000 3.0000 -1.0000
v -9.5000 3.0000 -0.9500
v -9.0000 3.0000 -0.9000
v -8.5000 3.0000 -0.8500
v -8.0000 3.0000 -0.8000
v -7.5000 3.0000 -0.7500
v -7.0000 3.0000 -0.7000
v -6.5000 3.0000 -0.6500
v -6.0000 3.0000 -0.6000
v -5.5000 3.0000 -0.5500
v -5.0000 3.0000 -0.5000
v -4.5000 3.0000 -0.4500
v -4.0000 3.0000 -0.4000
v -3.5000 3.0000 -0.3500
v -3.0000 3.0000 -0.3000
v -2.5000 3.0000 -0.2500
v -2.0000 3.0000 -0.2000
v -1.5000 3.0000 -0.1500
v -1.0000 3.0000 -0.1000
v -0.5000 3.0000 -0.0500
v 0.0000 3.0000 0.0000
v 0.5000 3.0000 0.0500
v 1.0000 3.0000 0.1000
v 1.5000 3.0000 0.1500
v 2.0000 3.0000 0.2000
v 2.5000 3.0000 0.2500
v 3.0000 3.0000 0.3000
v 3.5000 3.0000 0.3500
v 4.0000 3.0000 0.4000
v 4.5000 3.0000 0.4500
v 5.0000 3.0000 0.5000
v 5.5000 3.0000 0.5500
v 6.0000 3.0000 0.6000
v 6.5000 3.0000 0.6500
v 7.0000 3.0000 0.7000
v 7.5000 3.0000 0.7500
v 8.0000 3.0000 0.8000
v 8.5000 3.0000 0.8500
v 9.0000 3.0000 0.9000
v 9.5000 3.0000 0.9500
v 10.0000 3.0000 1.0000
v 10.5000 3.0000 1.0500
v 11.0000 3.0000 1.1000
v 11.5000 3.0000 1.1500
v 12.0000 3.0000 1.2000
v 12.5000 3.0000 1.2500
v 13.0000 3.0000 1.3000
v 13.5000 3.0000 1.3500
v 14.0000 3.0000 1.4000
v 14.5000 3.0000 1.4500
v 15.0000 3.0000 1.5000
vn -0.0995 0.0000 0.9950
vn -0.0995 0.0000 0.9950
vn -0.0995 0.0000 0.9950
vn -0.0995 0.0000 0.9950
vn -0.0995 0.0000 0.9950
vn -0.0995 0.0000 0.9950
vn -0.0995 0.0000 0.9950
vn -0.0995 0.0000 0.9950
vn -0.0995 0.0000 0.9950
vn -0.0995 0.0000 0.9950
vn -0.0995 0.0000 0.9950
vn -0.0995 0.0000 0.9950
vn -0.0995 0.0000 0.9950
vn -0.0995 0.0000 0.9950
vn -0.0995 0.0000 0.9950
vn -0.0995 0.0000 0.9950
vn -0.0995 0.0000 0.9950
vn -0.0995 0.0000 0.9950
vn -0.0995 0.0000 0.9950
vn -0.0995 0.0000 0.9950
vn -0.0995 0.0000 0.9950
vn -0.0995 0.0000 0.9950
vn -0.0995 0.0000 0.9950
vn -0.0995 0.0000 0.9950
vn -0.0995 0.0000 0.9950
vn -0.0995 0.0000 0.9950
vn -0.0995 0.0000 0.9950
vn -0.0995 0.0000 0.9950
vn -0.0995 0.0000 0.9950
vn -0.0995 0.0000 0.9950
vn -0.0995 0.0000 0.9950
vn -0.0995 0.0000 0.9950
vn -0.0995 0.0000 0.9950
vn -0.0995 0.0000 0.9950
vn -0.0995 0.0000 0.9950
vn -0.0995 0.0000 0.9950
vn -0.0995 0.0000 0.9950
vn -0.0995 0.0000 0.9950
vn -0.0995 0.0000 0.9950
vn -0.0995 0.0000 0.9950
vn -0.0995 0.0000 0.9950
vn -0.0995 0.0000 0.9950
vn -0.0995 0.0000 0.9950
vn -0.0995 0.0000 0.9950
vn -0.0995 0.0000 0.9950
vn -0.0995 0.0000 0.9950
vn -0.0995 0.0000 0.9950
vn -0.0995 0.0000 0.9950
vn -0.0995 0.0000 0.9950
vn -0.0995 0.0000 0.9950
vn -0.0995 0.0000 0.9950
vn -0.0995 0.0000 0.9950
vn -0.0995 0.0000 0.9950
vn -0.0995 0.0000 0.9950
vn -0.0995 0.0000 0.9950
vn -0.0995 0.0000 0.9950
vn -0.0995 0.0000 0.9950
vn -0.0995 0.0000 0.9950
vn -0.0995 0.0000 0.9950
vn -0.0995 0.0000 0.9950
vn -0.0995 0.0000 0.9950
vn -0.0995 0.0000 0.9950
vn -0.0995 0.0000 0.9950
vn -0.0995 0.0000 0.9950
vn -0.0995 0.0000 0.9950
vn -0.0995 0.0000 0.9950
vn -0.0995 0.0000 0.9950
vn -0.0995 0.0000 0.9950
vn -0.0995 0.0000 0.9950
vn -0.0995 0.0000 0.9950
vn -0.0995 0.0000 0.9950
vn -0.0995 0.0000 0.9950
vn -0.0995 0.0000 0.9950
vn -0.0995 0.0000 0.9950
vn -0.0995 0.0000 0.9950
vn -0.0995 0.0000 0.9950
vn -0.0995 0.0000 0.9950
vn -0.0995 0.0000 0.9950
vn -0.0995 0.0000 0.9950
vn -0.0995 0.0000 0.9950
vn -0.0995 0.0000 0.9950
vn -0.0995 0.0000 0.9950
vn -0.0995 0.0000 0.9950
vn -0.0995 0.0000 0.9950
vn -0.0995 0.0000 0.9950
vn -0.0995 0.0000 0.9950
vn -0.0995 0.0000 0.9950
vn -0.0995 0.0000 0.9950
vn -0.0995 0.0000 0.9950
vn -0.0995 0.0000 0.9950
vn -0.0995 0.0000 0.9950
vn -0.0995 0.0000 0.9950
vn -0.0995 0.0000 0.9950
vn -0.0995 0.0000 0.9950
vn -0.0995 0.0000 0.9950
vn -0.0995 0.0000 0.9950
vn -0.0995 0.0000 0.9950
vn -0.0995 0.0000 0.9950
vn -0.0995 0.0000 0.9950
vn -0.0995 0.0000 0.9950
vn -0.0995 0.0000 0.9950
vn -0.0995 0.0000 0.9950
vn -0.0995 0.0000 0.9950
vn -0.0995 0.0000 0.9950
vn -0.0995 0.0000 0.9950
vn -0.0995 0.0000 0.9950
vn -0.0995 0.0000 0.9950
vn -0.0995 0.0000 0.9950
vn -0.0995 0.0000 0.9950
vn -0.0995 0.0000 0.9950
vn -0.0995 0.0000 0.9950
vn -0.0995 0.0000 0.9950
vn -0.0995 0.0000 0.9950
vn -0.0995 0.0000 0.9950
vn -0.0995 0.0000 0.9950
vn -0.0995 0.0000 0.9950
vn -0.0995 0.0000 0.9950
vn -0.0995 0.0000 0.9950
vn -0.0995 0.0000 0.9950
vn -0.0995 0.0000 0.9950
vn -0.0995 0.0000 0.9950
vn -0.0995 0.0000 0.9950
vn -0.0995 0.0000 0.9950
vn -0.0995 0.0000 0.9950
vn -0.0995 0.0000 0.9950
vn -0.0995 0.0000 0.9950
vn -0.0995 0.0000 0.9950
vn -0.0995 0.0000 0.9950
vn -0.0995 0.0000 0.9950
vn -0.0995 0.0000 0.9950
vn -0.0995 0.0000 0.9950
vn -0.0995 0.0000 0.9950
vn -0.0995 0.0000 0.9950
vn -0.0995 0.0000 0.9950
vn -0.0995 0.0000 0.9950
vn -0.0995 0.0000 0.9950
vn -0.0995 0.0000 0.9950
vn -0.0995 0.0000 0.9950
vn -0.0995 0.0000 0.9950
vn -0.0995 0.0000 0.9950
vn -0.0995 0.0000 0.9950
vn -0.0995 0.0000 0.9950
vn -0.0995 0.0000 0.9950
vn -0.0995 0.0000 0.9950
vn -0.0995 0.0000 0.9950
vn -0.0995 0.0000 0.9950
vn -0.0995 0.0000 0.9950
vn -0.0995 0.0000 0.9950
vn -0.0995 0.0000 0.9950
vn -0.0995 0.0000 0.9950
vn -0.0995 0.0000 0.9950
vn -0.0995 0.0000 0.9950
vn -0.0995 0.0000 0.9950
vn -0.0995 0.0000 0.9950
vn -0.0995 0.0000 0.9950
vn -0.0995 0.0000 0.9950
vn -0.0995 0.0000 0.9950
vn -0.0995 0.0000 0.9950
vn -0.0995 0.0000 0.9950
vn -0.0995 0.0000 0.9950
vn -0.0995 0.0000 0.9950
vn -0.0995 0.0000 0.9950
vn -0.0995 0.0000 0.9950
vn -0.0995 0.0000 0.9950
vn -0.0995 0.0000 0.9950
vn -0.0995 0.0000 0.9950
vn -0.0995 0.0000 0.9950
vn -0.0995 0.0000 0.9950
vn -0.0995 0.0000 0.9950
vn -0.0995 0.0000 0.9950
vn -0.0995 0.0000 0.9950
vn -0.0995 0.0000 0.9950
vn -0.0995 0.0000 0.9950
vn -0.0995 0.0000 0.9950
vn -0.0995 0.0000 0.9950
vn -0.0995 0.0000 0.9950
vn -0.0995 0.0000 0.9950
vn -0.0995 0.0000 0.9950
vn -0.0995 0.0000 0.9950
vn -0.0995 0.0000 0.9950
vn -0.0995 0.0000 0.9950
vn -0.0995 0.0000 0.9950
vn -0.0995 0.0000 0.9950
vn -0.0995 0.0000 0.9950
vn -0.0995 0.0000 0.9950
vn -0.0995 0.0000 0.9950
vn -0.0995 0.0000 0.9950
vn -0.0995 0.0000 0.9950
vn -0.0995 0.0000 0.9950
vn -0.0995 0.0000 0.9950
vn -0.0995 0.0000 0.9950
vn -0.0995 0.0000 0.9950
vn -0.0995 0.0000 0.9950
vn -0.0995 0.0000 0.9950
vn -0.0995 0.0000 0.9950
vn -0.0995 0.0000 0.9950
vn -0.0995 0.0000 0.9950
vn -0.0995 0.0000 0.9950
vn -0.0995 0.0000 0.9950
vn -0.0995 0.0000 0.9950
vn -0.0995 0.0000 0.9950
vn -0.0995 0.0000 0.9950
vn -0.0995 0.0000 0.9950
vn -0.0995 0.0000 0.9950
vn -0.0995 0.0000 0.9950
vn -0.0995 0.0000 0.9950
vn -0.0995 0.0000 0.9950
vn -0.0995 0.0000 0.9950
vn -0.0995 0.0000 0.9950
vn -0.0995 0.0000 0.9950
vn -0.0995 0.0000 0.9950
vn -0.0995 0.0000 0.9950
vn -0.0995 0.0000 0.9950
vn -0.0995 0.0000 0.9950
vn -0.0995 0.0000 0.9950
vn -0.0995 0.0000 0.9950
vn -0.0995 0.0000 0.9950
vn -0.0995 0.0000 0.9950
vn -0.0995 0.0000 0.9950
vn -0.0995 0.0000 0.9950
vn -0.0995 0.0000 0.9950
vn -0.0995 0.0000 0.9950
vn -0.0995 0.0000 0.9950
vn -0.0995 0.0000 0.9950
vn -0.0995 0.0000 0.9950
vn -0.0995 0.0000 0.9950
vn -0.0995 0.0000 0.9950
vn -0.0995 0.0000 0.9950
vn -0.0995 0.0000 0.9950
vn -0.0995 0.0000 0.9950
vn -0.0995 0.0000 0.9950
vn -0.0995 0.0000 0.9950
vn -0.0995 0.0000 0.9950
vn -0.0995 0.0000 0.9950
vn -0.0995 0.0000 0.9950
vn -0.0995 0.0000 0.9950
vn -0.0995 0.0000 0.9950
vn -0.0995 0.0000 0.9950
vn -0.0995 0.0000 0.9950
vn -0.0995 0.0000 0.9950
vn -0.0995 0.0000 0.9950
vn -0.0995 0.0000 0.9950
vn -0.0995 0.0000 0.9950
vn -0.0995 0.0000 0.9950
vn -0.0995 0.0000 0.9950
vn -0.0995 0.0000 0.9950
vn -0.0995 0.0000 0.9950
vn -0.0995 0.0000 0.9950
vn -0.0995 0.0000 0.9950
vn -0.0995 0.0000 0.9950
vn -0.0995 0.0000 0.9950
vn -0.0995 0.0000 0.9950
vn -0.0995 0.0000 0.9950
vn -0.0995 0.0000 0.9950
vn -0.0995 0.0000 0.9950
vn -0.0995 0.0000 0.9950
vn -0.0995 0.0000 0.9950
vn -0.0995 0.0000 0.9950
vn -0.0995 0.0000 0.9950
vn -0.0995 0.0000 0.9950
vn -0.0995 0.0000 0.9950
vn -0.0995 0.0000 0.9950
vn -0.0995 0.0000 0.9950
vn -0.0995 0.0000 0.9950
vn -0.0995 0.0000 0.9950
vn -0.0995 0.0000 0.9950
vn -0.0995 0.0000 0.9950
vn -0.0995 0.0000 0.9950
vn -0.0995 0.0000 0.9950
vn -0.0995 0.0000 0.9950
vn -0.0995 0.0000 0.9950
vn -0.0995 0.0000 0.9950
vn -0.0995 0.0000 0.9950
vn -0.0995 0.0000 0.9950
vn -0.0995 0.0000 0.9950
vn -0.0995 0.0000 0.9950
vn -0.0995 0.0000 0.9950
vn -0.0995 0.0000 0.9950
vn -0.0995 0.0000 0.9950
vn -0.0995 0.0000 0.9950
vn -0.0995 0.0000 0.9950
vn -0.0995 0.0000 0.9950
vn -0.0995 0.0000 0.9950
vn -0.0995 0.0000 0.9950
vn -0.0995 0.0000 0.9950
vn -0.0995 0.0000 0.9950
vn -0.0995 0.0000 0.9950
vn -0.0995 0.0000 0.9950
vn -0.0995 0.0000 0.9950
vn -0.0995 0.0000 0.9950
vn -0.0995 0.0000 0.9950
vn -0.0995 0.0000 0.9950
vn -0.0995 0.0000 0.9950
vn -0.0995 0.0000 0.9950
vn -0.0995 0.0000 0.9950
vn -0.0995 0.0000 0.9950
vn -0.0995 0.0000 0.9950
vn -0.0995 0.0000 0.9950
vn -0.0995 0.0000 0.9950
vn -0.0995 0.0000 0.9950
vn -0.0995 0.0000 0.9950
vn -0.0995 0.0000 0.9950
vn -0.0995 0.0000 0.9950
vn -0.0995 0.0000 0.9950
vn -0.0995 0.0000 0.9950
vn -0.0995 0.0000 0.9950
vn -0.0995 0.0000 0.9950
vn -0.0995 0.0000 0.9950
vn -0.0995 0.0000 0.9950
vn -0.0995 0.0000 0.9950
vn -0.0995 0.0000 0.9950
vn -0.0995 0.0000 0.9950
vn -0.0995 0.0000 0.9950
vn -0.0995 0.0000 0.9950
vn -0.0995 0.0000 0.9950
vn -0.0995 0.0000 0.9950
vn -0.0995 0.0000 0.9950
vn -0.0995 0.0000 0.9950
vn -0.0995 0.0000 0.9950
vn -0.0995 0.0000 0.9950
vn -0.0995 0.0000 0.9950
vn -0.0995 0.0000 0.9950
vn -0.0995 0.0000 0.9950
vn -0.0995 0.0000 0.9950
vn -0.0995 0.0000 0.9950
vn -0.0995 0.0000 0.9950
vn -0.0995 0.0000 0.9950
vn -0.0995 0.0000 0.9950
vn -0.0995 0.0000 0.9950
vn -0.0995 0.0000 0.9950
vn -0.0995 0.0000 0.9950
vn -0.0995 0.0000 0.9950
vn -0.0995 0.0000 0.9950
vn -0.0995 0.0000 0.9950
vn -0.0995 0.0000 0.9950
vn -0.0995 0.0000 0.9950
vn -0.0995 0.0000 0.9950
vn -0.0995 0.0000 0.9950
vn -0.0995 0.0000 0.9950
vn -0.0995 0.0000 0.9950
vn -0.0995 0.0000 0.9950
vn -0.0995 0.0000 0.9950
vn -0.0995 0.0000 0.9950
vn -0.0995 0.0000 0.9950
vn -0.0995 0.0000 0.9950
vn -0.0995 0.0000 0.9950
vn -0.0995 0.0000 0.9950
vn -0.0995 0.0000 0.9950
vn -0.0995 0.0000 0.9950
vn -0.0995 0.0000 0.9950
vn -0.0995 0.0000 0.9950
vn -0.0995 0.0000 0.9950
vn -0.0995 0.0000 0.9950
vn -0.0995 0.0000 0.9950
vn -0.0995 0.0000 0.9950
vn -0.0995 0.0000 0.9950
vn -0.0995 0.0000 0.9950
vn -0.0995 0.0000 0.9950
vn -0.0995 0.0000 0.9950
vn -0.0995 0.0000 0.9950
vn -0.0995 0.0000 0.9950
vn -0.0995 0.0000 0.9950
vn -0.0995 0.0000 0.9950
vn -0.0995 0.0000 0.9950
vn -0.0995 0.0000 0.9950
vn -0.0995 0.0000 0.9950
vn -0.0995 0.0000 0.9950
vn -0.0995 0.0000 0.9950
vn -0.0995 0.0000 0.9950
vn -0.0995 0.0000 0.9950
vn -0.0995 0.0000 0.9950
vn -0.0995 0.0000 0.9950
vn -0.0995 0.0000 0.9950
vn -0.0995 0.0000 0.9950
vn -0.0995 0.0000 0.9950
vn -0.0995 0.0000 0.9950
vn -0.0995 0.0000 0.9950
vn -0.0995 0.0000 0.9950
vn -0.0995 0.0000 0.9950
vn -0.0995 0.0000 0.9950
vn -0.0995 0.0000 0.9950
vn -0.0995 0.0000 0.9950
vn -0.0995 0.0000 0.9950
vn -0.0995 0.0000 0.9950
vn -0.0995 0.0000 0.9950
vn -0.0995 0.0000 0.9950
vn -0.0995 0.0000 0.9950
vn -0.0995 0.0000 0.9950
vn -0.0995 0.0000 0.9950
vn -0.0995 0.0000 0.9950
vn -0.0995 0.0000 0.9950
vn -0.0995 0.0000 0.9950
vn -0.0995 0.0000 0.9950
vn -0.0995 0.0000 0.9950
vn -0.0995 0.0000 0.9950
vn -0.0995 0.0000 0.9950
vn -0.0995 0.0000 0.9950
vn -0.0995 0.0000 0.9950
vn -0.0995 0.0000 0.9950
vn -0.0995 0.0000 0.9950
vn -0.0995 0.0000 0.9950
vn -0.0995 0.0000 0.9950
vn -0.0995 0.0000 0.9950
vn -0.0995 0.0000 0.9950
vn -0.0995 0.0000 0.9950
vn -0.0995 0.0000 0.9950
vn -0.0995 0.0000 0.9950
vn -0.0995 0.0000 0.9950
vn -0.0995 0.0000 0.9950
vn -0.0995 0.0000 0.9950
vn -0.0995 0.0000 0.9950
vn -0.0995 0.0000 0.9950
vn -0.0995 0.0000 0.9950
vn -0.0995 0.0000 0.9950
vn -0.0995 0.0000 0.9950
vn -0.0995 0.0000 0.9950
vn -0.0995 0.0000 0.9950
vn -0.0995 0.0000 0.9950
vn -0.0995 0.0000 0.9950
vn -0.0995 0.0000 0.9950
vn -0.0995 0.0000 0.9950
vn -0.0995 0.0000 0.9950
vn -0.0995 0.0000 0.9950
vn -0.0995 0.0000 0.9950
vn -0.0995 0.0000 0.9950
vn -0.0995 0.0000 0.9950
vn -0.0995 0.0000 0.9950
vn -0.0995 0.0000 0.9950
vn -0.0995 0.0000 0.9950
vn -0.0995 0.0000 0.9950
vn -0.0995 0.0000 0.9950
vn -0.0995 0.0000 0.9950
vn -0.0995 0.0000 0.9950
vn -0.0995 0.0000 0.9950
vn -0.0995 0.0000 0.9950
vn -0.0995 0.0000 0.9950
vn -0.0995 0.0000 0.9950
vn -0.0995 0.0000 0.9950
vn -0.0995 0.0000 0.9950
vn -0.0995 0.0000 0.9950
vn -0.0995 0.0000 0.9950
vn -0.0995 0.0000 0.9950
vn -0.0995 0.0000 0.9950
vn -0.0995 0.0000 0.9950
vn -0.0995 0.0000 0.9950
vn -0.0995 0.0000 0.9950
vn -0.0995 0.0000 0.9950
vn -0.0995 0.0000 0.9950
vn -0.0995 0.0000 0.9950
vn -0.0995 0.0000 0.9950
vn -0.0995 0.0000 0.9950
vn -0.0995 0.0000 0.9950
vn -0.0995 0.0000 0.9950
vn -0.0995 0.0000 0.9950
vn -0.0995 0.0000 0.9950
vn -0.0995 0.0000 0.9950
vn -0.0995 0.0000 0.9950
vn -0.0995 0.0000 0.9950
vn -0.0995 0.0000 0.9950
vn -0.0995 0.0000 0.9950
vn -0.0995 0.0000 0.9950
vn -0.0995 0.0000 0.9950
vn -0.0995 0.0000 0.9950
vn -0.0995 0.0000 0.9950
vn -0.0995 0.0000 0.9950
vn -0.0995 0.0000 0.9950
vn -0.0995 0.0000 0.9950
vn -0.0995 0.0000 0.9950
vn -0.0995 0.0000 0.9950
vn -0.0995 0.0000 0.9950
vn -0.0995 0.0000 0.9950
vn -0.0995 0.0000 0.9950
vn -0.0995 0.0000 0.9950
vn -0.0995 0.0000 0.9950
vn -0.0995 0.0000 0.9950
vn -0.0995 0.0000 0.9950
vn -0.0995 0.0000 0.9950
vn -0.0995 0.0000 0.9950
vn -0.0995 0.0000 0.9950
vn -0.0995 0.0000 0.9950
vn -0.0995 0.0000 0.9950
vn -0.0995 0.0000 0.9950
vn -0.0995 0.0000 0.9950
vn -0.0995 0.0000 0.9950
vn -0.0995 0.0000 0.9950
vn -0.0995 0.0000 0.9950
vn -0.0995 0.0000 0.9950
vn -0.0995 0.0000 0.9950
vn -0.0995 0.0000 0.9950
vn -0.0995 0.0000 0.9950
vn -0.0995 0.0000 0.9950
vn -0.0995 0.0000 0.9950
vn -0.0995 0.0000 0.9950
vn -0.0995 0.0000 0.9950
vn -0.0995 0.0000 0.9950
vn -0.0995 0.0000 0.9950
vn -0.0995 0.0000 0.9950
vn -0.0995 0.0000 0.9950
vn -0.0995 0.0000 0.9950
vn -0.0995 0.0000 0.9950
vn -0.0995 0.0000 0.9950
vn -0.0995 0.0000 0.9950
vn -0.0995 0.0000 0.9950
vn -0.0995 0.0000 0.9950
vn -0.0995 0.0000 0.9950
vn -0.0995 0.0000 0.9950
vn -0.0995 0.0000 0.9950
vn -0.0995 0.0000 0.9950
vn -0.0995 0.0000 0.9950
vn -0.0995 0.0000 0.9950
vn -0.0995 0.0000 0.9950
vn -0.0995 0.0000 0.9950
vn -0.0995 0.0000 0.9950
vn -0.0995 0.0000 0.9950
vn -0.0995 0.0000 0.9950
vn -0.0995 0.0000 0.9950
vn -0.0995 0.0000 0.9950
vn -0.0995 0.0000 0.9950
vn -0.0995 0.0000 0.9950
vn -0.0995 0.0000 0.9950
vn -0.0995 0.0000 0.9950
vn -0.0995 0.0000 0.9950
vn -0.0995 0.0000 0.9950
vn -0.0995 0.0000 0.9950
vn -0.0995 0.0000 0.9950
vn -0.0995 0.0000 0.9950
vn -0.0995 0.0000 0.9950
vn -0.0995 0.0000 0.9950
vn -0.0995 0.0000 0.9950
vn -0.0995 0.0000 0.9950
vn -0.0995 0.0000 0.9950
vn -0.0995 0.0000 0.9950
vn -0.0995 0.0000 0.9950
vn -0.0995 0.0000 0.9950
vn -0.0995 0.0000 0.9950
vn -0.0995 0.0000 0.9950
vn -0.0995 0.0000 0.9950
vn -0.0995 0.0000 0.9950
vn -0.0995 0.0000 0.9950
vn -0.0995 0.0000 0.9950
vn -0.0995 0.0000 0.9950
vn -0.0995 0.0000 0.9950
vn -0.0995 0.0000 0.9950
vn -0.0995 0.0000 0.9950
vn -0.0995 0.0000 0.9950
vn -0.0995 0.0000 0.9950
vn -0.0995 0.0000 0.9950
vn -0.0995 0.0000 0.9950
vn -0.0995 0.0000 0.9950
vn -0.0995 0.0000 0.9950
vn -0.0995 0.0000 0.9950
vn -0.0995 0.0000 0.9950
vn -0.0995 0.0000 0.9950
vn -0.0995 0.0000 0.9950
vn -0.0995 0.0000 0.9950
vn -0.0995 0.0000 0.9950
vn -0.0995 0.0000 0.9950
vn -0.0995 0.0000 0.9950
vn -0.0995 0.0000 0.9950
vn -0.0995 0.0000 0.9950
vn -0.0995 0.0000 0.9950
vn -0.0995 0.0000 0.9950
vn -0.0995 0.0000 0.9950
vn -0.0995 0.0000 0.9950
vn -0.0995 0.0000 0.9950
vn -0.0995 0.0000 0.9950
vn -0.0995 0.0000 0.9950
vn -0.0995 0.0000 0.9950
vn -0.0995 0.0000 0.9950
vn -0.0995 0.0000 0.9950
vn -0.0995 0.0000 0.9950
vn -0.0995 0.0000 0.9950
vn -0.0995 0.0000 0.9950
vn -0.0995 0.0000 0.9950
vn -0.0995 0.0000 0.9950
vn -0.0995 0.0000 0.9950
vn -0.0995 0.0000 0.9950
vn -0.0995 0.0000 0.9950
vn -0.0995 0.0000 0.9950
vn -0.0995 0.0000 0.9950
vn -0.0995 0.0000 0.9950
vn -0.0995 0.0000 0.9950
vn -0.0995 0.0000 0.9950
vn -0.0995 0.0000 0.9950
vn -0.0995 0.0000 0.9950
vn -0.0995 0.0000 0.9950
vn -0.0995 0.0000 0.9950
vn -0.0995 0.0000 0.9950
vn -0.0995 0.0000 0.9950
vn -0.0995 0.0000 0.9950
vn -0.0995 0.0000 0.9950
vn -0.0995 0.0000 0.9950
vn -0.0995 0.0000 0.9950
vn -0.0995 0.0000 0.9950
vn -0.0995 0.0000 0.9950
vn -0.0995 0.0000 0.9950
vn -0.0995 0.0000 0.9950
vn -0.0995 0.0000 0.9950
vn -0.0995 0.0000 0.9950
vn -0.0995 0.0000 0.9950
vn -0.0995 0.0000 0.9950
vn -0.0995 0.0000 0.9950
vn -0.0995 0.0000 0.9950
vn -0.0995 0.0000 0.9950
vn -0.0995 0.0000 0.9950
vn -0.0995 0.0000 0.9950
vn -0.0995 0.0000 0.9950
vn -0.0995 0.0000 0.9950
vn -0.0995 0.0000 0.9950
vn -0.0995 0.0000 0.9950
vn -0.0995 0.0000 0.9950
vn -0.0995 0.0000 0.9950
vn -0.0995 0.0000 0.9950
vn -0.0995 0.0000 0.9950
vn -0.0995 0.0000 0.9950
vn -0.0995 0.0000 0.9950
vn -0.0995 0.0000 0.9950
vn -0.0995 0.0000 0.9950
vn -0.0995 0.0000 0.9950
vn -0.0995 0.0000 0.9950
vn -0.0995 0.0000 0.9950
vn -0.0995 0.0000 0.9950
vn -0.0995 0.0000 0.9950
vn -0.0995 0.0000 0.9950
vn -0.0995 0.0000 0.9950
vn -0.0995 0.0000 0.9950
vn -0.0995 0.0000 0.9950
vn -0.0995 0.0000 0.9950
vn -0.0995 0.0000 0.9950
vn -0.0995 0.0000 0.9950
vn -0.0995 0.0000 0.9950
vn -0.0995 0.0000 0.9950
vn -0.0995 0.0000 0.9950
vn -0.0995 0.0000 0.9950
vn -0.0995 0.0000 0.9950
vn -0.0995 0.0000 0.9950
vn -0.0995 0.0000 0.9950
vn -0.0995 0.0000 0.9950
vn -0.0995 0.0000 0.9950
vn -0.0995 0.0000 0.9950
vn -0.0995 0.0000 0.9950
vn -0.0995 0.0000 0.9950
vn -0.0995 0.0000 0.9950
vn -0.0995 0.0000 0.9950
vn -0.0995 0.0000 0.9950
vn -0.0995 0.0000 0.9950
vn -0.0995 0.0000 0.9950
vn -0.0995 0.0000 0.9950
vn -0.0995 0.0000 0.9950
vn -0.0995 0.0000 0.9950
vn -0.0995 0.0000 0.9950
vn -0.0995 0.0000 0.9950
vn -0.0995 0.0000 0.9950
vn -0.0995 0.0000 0.9950
vn -0.0995 0.0000 0.9950
vn -0.0995 0.0000 0.9950
vn -0.0995 0.0000 0.9950
vn -0.0995 0.0000 0.9950
vn -0.0995 0.0000 0.9950
vn -0.0995 0.0000 0.9950
vn -0.0995 0.0000 0.9950
vn -0.0995 0.0000 0.9950
vn -0.0995 0.0000 0.9950
vn -0.0995 0.0000 0.9950
vn -0.0995 0.0000 0.9950
vn -0.0995 0.0000 0.9950
vn -0.0995 0.0000 0.9950
vn -0.0995 0.0000 0.9950
vn -0.0995 0.0000 0.9950
vn -0.0995 0.0000 0.9950
vn -0.0995 0.0000 0.9950
vn -0.0995 0.0000 0.9950
vn -0.0995 0.0000 0.9950
vn -0.0995 0.0000 0.9950
vn -0.0995 0.0000 0.9950
vn -0.0995 0.0000 0.9950
vn -0.0995 0.0000 0.9950
vn -0.0995 0.0000 0.9950
vn -0.0995 0.0000 0.9950
vn -0.0995 0.0000 0.9950
vn -0.0995 0.0000 0.9950
vn -0.0995 0.0000 0.9950
vn -0.0995 0.0000 0.9950
vn -0.0995 0.0000 0.9950
vn -0.0995 0.0000 0.9950
vn -0.0995 0.0000 0.9950
vn -0.0995 0.0000 0.9950
vn -0.0995 0.0000 0.9950
vn -0.0995 0.0000 0.9950
vn -0.0995 0.0000 0.9950
vn -0.0995 0.0000 0.9950
vn -0.0995 0.0000 0.9950
vn -0.0995 0.0000 0.9950
vn -0.0995 0.0000 0.9950
vn -0.0995 0.0000 0.9950
vn -0.0995 0.0000 0.9950
vn -0.0995 0.0000 0.9950
vn -0.0995 0.0000 0.9950
vn -0.0995 0.0000 0.9950
vn -0.0995 0.0000 0.9950
vn -0.0995 0.0000 0.9950
vn -0.0995 0.0000 0.9950
vn -0.0995 0.0000 0.9950
vn -0.0995 0.0000 0.9950
vn -0.0995 0.0000 0.9950
vn -0.0995 0.0000 0.9950
vn -0.0995 0.0000 0.9950
vn -0.0995 0.0000 0.9950
vn -0.0995 0.0000 0.9950
vn -0.0995 0.0000 0.9950
vn -0.0995 0.0000 0.9950
vn -0.0995 0.0000 0.9950
vn -0.0995 0.0000 0.9950
vn -0.0995 0.0000 0.9950
vn -0.0995 0.0000 0.9950
vn -0.0995 0.0000 0.9950
vn -0.0995 0.0000 0.9950
vn -0.0995 0.0000 0.9950
vn -0.0995 0.0000 0.9950
vn -0.0995 0.0000 0.9950
vn -0.0995 0.0000 0.9950
vn -0.0995 0.0000 0.9950
vn -0.0995 0.0000 0.9950
vn -0.0995 0.0000 0.9950
vn -0.0995 0.0000 0.9950
vn -0.0995 0.0000 0.9950
vn -0.0995 0.0000 0.9950
vn -0.0995 0.0000 0.9950
vn -0.0995 0.0000 0.9950
vn -0.0995 0.0000 0.9950
vn -0.0995 0.0000 0.9950
vn -0.0995 0.0000 0.9950
vn -0.0995 0.0000 0.9950
vn -0.0995 0.0000 0.9950
vn -0.0995 0.0000 0.9950
vn -0.0995 0.0000 0.9950
vn -0.0995 0.0000 0.9950
vn -0.0995 0.0000 0.9950
vn -0.0995 0.0000 0.9950
vn -0.0995 0.0000 0.9950
vn -0.0995 0.0000 0.9950
vn -0.0995 0.0000 0.9950
vn -0.0995 0.0000 0.9950
vn -0.0995 0.0000 0.9950
vn -0.0995 0.0000 0.9950
vn -0.0995 0.0000 0.9950
vn -0.0995 0.0000 0.9950
vn -0.0995 0.0000 0.9950
vn -0.0995 0.0000 0.9950
vn -0.0995 0.0000 0.9950
vn -0.0995 0.0000 0.9950
vn -0.0995 0.0000 0.9950
vn -0.0995 0.0000 0.9950
vn -0.0995 0.0000 0.9950
vn -0.0995 0.0000 0.9950
vn -0.0995 0.0000 0.9950
vn -0.0995 0.0000 0.9950
vn -0.0995 0.0000 0.9950
vn -0.0995 0.0000 0.9950
vn -0.0995 0.0000 0.9950
vn -0.0995 0.0000 0.9950
vn -0.0995 0.0000 0.9950
vn -0.0995 0.0000 0.9950
vn -0.0995 0.0000 0.9950
vn -0.0995 0.0000 0.9950
vn -0.0995 0.0000 0.9950
vn -0.0995 0.0000 0.9950
vn -0.0995 0.0000 0.9950
vn -0.0995 0.0000 0.9950
vn -0.0995 0.0000 0.9950
vn -0.0995 0.0000 0.9950
vn -0.0995 0.0000 0.9950
vn -0.0995 0.0000 0.9950
vn -0.0995 0.0000 0.9950
vn -0.0995 0.0000 0.9950
vn -0.0995 0.0000 0.9950
vn -0.0995 0.0000 0.9950
vn -0.0995 0.0000 0.9950
vn -0.0995 0.0000 0.9950
vn -0.0995 0.0000 0.9950
vn -0.0995 0.0000 0.9950
vn -0.0995 0.0000 0.9950
vn -0.0995 0.0000 0.9950
vn -0.0995 0.0000 0.9950
vn -0.0995 0.0000 0.9950
vn -0.0995 0.0000 0.9950
vn -0.0995 0.0000 0.9950
vn -0.0995 0.0000 0.9950
vn -0.0995 0.0000 0.9950
vn -0.0995 0.0000 0.9950
vn -0.0995 0.0000 0.9950
vn -0.0995 0.0000 0.9950
vn -0.0995 0.0000 0.9950
f 1//1 2//2 63//63
f 2//2 3//3 64//64
f 3//3 4//4 65//65
f 4//4 5//5 66//66
f 5//5 6//6 67//67
f 6//6 7//7 68//68
f 7//7 8//8 69//69
f 8//8 9//9 70//70
f 9//9 10//10 71//71
f 10//10 11//11 72//72
f 11//11 12//12 73//73
f 12//12 13//13 74//74
f 13//13 14//14 75//75
f 14//14 15//15 76//76
f 15//15 16//16 77//77
f 16//16 17//17 78//78
f 17//17 18//18 79//79
f 18//18 19//19 80//80
f 19//19 20//20 81//81
f 20//20 21//21 82//82
f 21//21 22//22 83//83
f 22//22 23//23 84//84
f 23//23 24//24 85//85
f 24//24 25//25 86//86
f 25//25 26//26 87//87
f 26//26 27//27 88//88
f 27//27 28//28 89//89
f 28//28 29//29 90//90
f 29//29 30//30 91//91
f 30//30 31//31 92//92
f 31//31 32//32 93//93
f 32//32 33//33 94//94
f 33//33 34//34 95//95
f 34//34 35//35 96//96
f 35//35 36//36 97//97
f 36//36 37//37 98//98
f 37//37 38//38 99//99
f 38//38 39//39 100//100
f 39//39 40//40 101//101
f 40//40 41//41 102//102
f 41//41 42//42 103//103
f 42//42 43//43 104//104
f 43//43 44//44 105//105
f 44//44 45//45 106//106
f 45//45 46//46 107//107
f 46//46 47//47 108//108
f 47//47 48//48 109//109
f 48//48 49//49 110//110
f 49//49 50//50 111//111
f 50//50 51//51 112//112
f 51//51 52//52 113//113
f 52//52 53//53 114//114
f 53//53 54//54 115//115
f 54//54 55//55 116//116
f 55//55 56//56 117//117
f 56//56 57//57 118//118
f 57//57 58//58 119//119
f 58//58 59//59 120//120
f 59//59 60//60 121//121
f 60//60 61//61 122//122
f 62//62 63//63 124//124
f 63//63 64//64 125//125
f 64//64 65//65 126//126
f 65//65 66//66 127//127
f 66//66 67//67 128//128
f 67//67 68//68 129//129
f 68//68 69//69 130//130
f 69//69 70//70 131//131
f 70//70 71//71 132//132
f 71//71 72//72 133//133
f 72//72 73//73 134//134
f 73//73 74//74 135//135
f 74//74 75//75 136//136
f 75//75 76//76 137//137
f 76//76 77//77 138//138
f 77//77 78//78 139//139
f 78//78 79//79 140//140
f 79//79 80//80 141//141
f 80//80 81//81 142//142
f 81//81 82//82 143//143
f 82//82 83//83 144//144
f 83//83 84//84 145//145
f 84//84 85//85 146//146
f 85//85 86//86 147//147
f 86//86 87//87 148//148
f 87//87 88//88 149//149
f 88//88 89//89 150//150
f 89//89 90//90 151//151
f 90//90 91//91 152//152
f 91//91 92//92 153//153
f 92//92 93//93 154//154
f 93//93 94//94 155//155
f 94//94 95//95 156//156
f 95//95 96//96 157//157
f 96//96 97//97 158//158
f 97//97 98//98 159//159
f 98//98 99//99 160//160
f 99//99 100//100 161//161
f 100//100 101//101 162//162
f 101//101 102//102 163//163
f 102//102 103//103 164//164
f 103//103 104//104 165//165
f 104//104 105//105 166//166
f 105//105 106//106 167//167
f 106//106 107//107 168//168
f 107//107 108//108 169//169
f 108//108 109//109 170//170
f 109//109 110//110 171//171
f 110//110 111//111 172//172
f 111//111 112//112 173//173
f 112//112 113//113 174//174
f 113//113 114//114 175//175
f 114//114 115//115 176//176
f 115//115 116//116 177//177
f 116//116 117//117 178//178
f 117//117 118//118 179//179
f 118//118 119//119 180//180
f 119//119 120//120 181//181
f 120//120 121//121 182//182
f 121//121 122//122 183//183
f 123//123 124//124 185//185
f 124//124 125//125 186//186
f 125//125 126//126 187//187
f 126//126 127//127 188//188
f 127//127 128//128 189//189
f 128//128 129//129 190//190
f 129//129 130//130 191//191
f 130//130 131//131 192//192
f 131//131 132//132 193//193
f 132//132 133//133 194//194
f 133//133 134//134 195//195
f 134//134 135//135 196//196
f 135//135 136//136 197//197
f 136//136 137//137 198//198
f 137//137 138//138 199//199
f 138//138 139//139 200//200
f 139//139 140//140 201//201
f 140//140 141//141 202//202
f 141//141 142//142 203//203
f 142//142 143//143 204//204
f 143//143 144//144 205//205
f 144//144 145//145 206//206
f 145//145 146//146 207//207
f 146//146 147//147 208//208
f 147//147 148//148 209//209
f 148//148 149//149 210//210
f 149//149 150//150 211//211
f 150//150 151//151 212//212
f 151//151 152//152 213//213
f 152//152 153//153 214//214
f 153//153 154//154 215//215
f 154//154 155//155 216//216
f 155//155 156//156 217//217
f 156//156 157//157 218//218
f 157//157 158//158 219//219
f 158//158 159//159 220//220
f 159//159 160//160 221//221
f 160//160 161//161 222//222
f 161//161 162//162 223//223
f 162//162 163//163 224//224
f 163//163 164//164 225//225
f 164//164 165//165 226//226
f 165//165 166//166 227//227
f 166//166 167//167 228//228
f 167//167 168//168 229//229
f 168//168 169//169 230//230
f 169//169 170//170 231//231
f 170//170 171//171 232//232
f 171//171 172//172 233//233
f 172//172 173//173 234//234
f 173//173 174//174 235//235
f 174//174 175//175 236//236
f 175//175 176//176 237//237
f 176//176 177//177 238//238
f 177//177 178//178 239//239
f 178//178 179//179 240//240
f 179//179 180//180 241//241
f 180//180 181//181 242//242
f 181//181 182//182 243//243
f 182//182 183//183 244//244
f 184//184 185//185 246//246
f 185//185 186//186 247//247
f 186//186 187//187 248//248
f 187//187 188//188 249//249
f 188//188 189//189 250//250
f 189//189 190//190 251//251
f 190//190 191//191 252//252
f 191//191 192//192 253//253
f 192//192 193//193 254//254
f 193//193 194//194 255//255
f 194//194 195//195 256//256
f 195//195 196//196 257//257
f 196//196 197//197 258//258
f 197//197 198//198 259//259
f 198//198 199//199 260//260
f 199//199 200//200 261//261
f 200//200 201//201 262//262
f 201//201 202//202 263//263
f 202//202 203//203 264//264
f 203//203 204//204 265//265
f 204//204 205//205 266//266
f 205//205 206//206 267//267
f 206//206 207//207 268//268
f 207//207 208//208 269//269
f 208//208 209//209 270//270
f 209//209 210//210 271//271
f 210//210 211//211 272//272
f 211//211 212//212 273//273
f 212//212 213//213 274//274
f 213//213 214//214 275//275
f 214//214 215//215 276//276
f 215//215 216//216 277//277
f 216//216 217//217 278//278
f 217//217 218//218 279//279
f 218//218 219//219 280//280
f 219//219 220//220 281//281
f 220//220 221//221 282//282
f 221//221 222//222 283//283
f 222//222 223//223 284//284
f 223//223 224//224 285//285
f 224//224 225//225 286//286
f 225//225 226//226 287//287
f 226//226 227//227 288//288
f 227//227 228//228 289//289
f 228//228 229//229 290//290
f 229//229 230//230 291//291
f 230//230 231//231 292//292
f 231//231 232//232 293//293
f 232//232 233//233 294//294
f 233//233 234//234 295//295
f 234//234 235//235 296//296
f 235//235 236//236 297//297
f 236//236 237//237 298//298
f 237//237 238//238 299//299
f 238//238 239//239 300//300
f 239//239 240//240 301//301
f 240//240 241//241 302//302
f 241//241 242//242 303//303
f 242//242 243//243 304//304
f 243//243 244//244 305//305
f 245//245 246//246 307//307
f 246//246 247//247 308//308
f 247//247 248//248 309//309
f 248//248 249//249 310//310
f 249//249 250//250 311//311
f 250//250 251//251 312//312
f 251//251 252//252 313//313
f 252//252 253//253 314//314
f 253//253 254//254 315//315
f 254//254 255//255 316//316
f 255//255 256//256 317//317
f 256//256 257//257 318//318
f 257//257 258//258 319//319
f 258//258 259//259 320//320
f 259//259 260//260 321//321
f 260//260 261//261 322//322
f 261//261 262//262 323//323
f 262//262 263//263 324//324
f 263//263 264//264 325//325
f 264//264 265//265 326//326
f 265//265 266//266 327//327
f 266//266 267//267 328//328
f 267//267 268//268 329//329
f 268//268 269//269 330//330
f 269//269 270//270 331//331
f 270//270 271//271 332//332
f 271//271 272//272 333//333
f 272//272 273//273 334//334
f 273//273 274//274 335//335
f 274//274 275//275 336//336
f 275//275 276//276 337//337
f 276//276 277//277 338//338
f 277//277 278//278 339//339
f 278//278 279//279 340//340
f 279//279 280//280 341//341
f 280//280 281//281 342//342
f 281//281 282//282 343//343
f 282//282 283//283 344//344
f 283//283 284//284 345//345
f 284//284 285//285 346//346
f 285//285 286//286 347//347
f 286//286 287//287 348//348
f 287//287 288//288 349//349
f 288//288 289//289 350//350
f 289//289 290//290 351//351
f 290//290 291//291 352//352
f 291//291 292//292 353//353
f 292//292 293//293 354//354
f 293//293 294//294 355//355
f 294//294 295//295 356//356
f 295//295 296//296 357//357
f 296//296 297//297 358//358
f 297//297 298//298 359//359
f 298//298 299//299 360//360
f 299//299 300//300 361//361
f 300//300 301//301 362//362
f 301//301 302//302 363//363
f 302//302 303//303 364//364
f 303//303 304//304 365//365
f 304//304 305//305 366//366
f 306//306 307//307 368//368
f 307//307 308//308 369//369
f 308//308 309//309 370//370
f 309//309 310//310 371//371
f 310//310 311//311 372//372
f 311//311 312//312 373//373
f 312//312 313//313 374//374
f 313//313 314//314 375//375
f 314//314 315//315 376//376
f 315//315 316//316 377//377
f 316//316 317//317 378//378
f 317//317 318//318 379//379
f 318//318 319//319 380//380
f 319//319 320//320 381//381
f 320//320 321//321 382//382
f 321//321 322//322 383//383
f 322//322 323//323 384//384
f 323//323 324//324 385//385
f 324//324 325//325 386//386
f 325//325 326//326 387//387
f 326//326 327//327 388//388
f 327//327 328//328 389//389
f 328//328 329//329 390//390
f 329//329 330//330 391//391
f 330//330 331//331 392//392
f 331//331 332//332 393//393
f 332//332 333//333 394//394
f 333//333 334//334 395//395
f 334//334 335//335 396//396
f 335//335 336//336 397//397
f 336//336 337//337 398//398
f 337//337 338//338 399//399
f 338//338 339//339 400//400
f 339//339 340//340 401//401
f 340//340 341//341 402//402
f 341//341 342//342 403//403
f 342//342 343//343 404//404
f 343//343 344//344 405//405
f 344//344 345//345 406//406
f 345//345 346//346 407//407
f 346//346 347//347 408//408
f 347//347 348//348 409//409
f 348//348 349//349 410//410
f 349//349 350//350 411//411
f 350//350 351//351 412//412
f 351//351 352//352 413//413
f 352//352 353//353 414//414
f 353//353 354//354 415//415
f 354//354 355//355 416//416
f 355//355 356//356 417//417
f 356//356 357//357 418//418
f 357//357 358//358 419//419
f 358//358 359//359 420//420
f 359//359 360//360 421//421
f 360//360 361//361 422//422
f 361//361 362//362 423//423
f 362//362 363//363 424//424
f 363//363 364//364 425//425
f 364//364 365//365 426//426
f 365//365 366//366 427//427
f 367//367 368//368 429//429
f 368//368 369//369 430//430
f 369//369 370//370 431//431
f 370//370 371//371 432//432
f 371//371 372//372 433//433
f 372//372 373//373 434//434
f 373//373 374//374 435//435
f 374//374 375//375 436//436
f 375//375 376//376 437//437
f 376//376 377//377 438//438
f 377//377 378//378 439//439
f 378//378 379//379 440//440
f 379//379 380//380 441//441
f 380//380 381//381 442//442
f 381//381 382//382 443//443
f 382//382 383//383 444//444
f 383//383 384//384 445//445
f 384//384 385//385 446//446
f 385//385 386//386 447//447
f 386//386 387//387 448//448
f 387//387 388//388 449//449
f 388//388 389//389 450//450
f 389//389 390//390 451//451
f 390//390 391//391 452//452
f 391//391 392//392 453//453
f 392//392 393//393 454//454
f 393//393 394//394 455//455
f 394//394 395//395 456//456
f 395//395 396//396 457//457
f 396//396 397//397 458//458
f 397//397 398//398 459//459
f 398//398 399//399 460//460
f 399//399 400//400 461//461
f 400//400 401//401 462//462
f 401//401 402//402 463//463
f 402//402 403//403 464//464
f 403//403 404//404 465//465
f 404//404 405//405 466//466
f 405//405 406//406 467//467
f 406//406 407//407 468//468
f 407//407 408//408 469//469
f 408//408 409//409 470//470
f 409//409 410//410 471//471
f 410//410 411//411 472//472
f 411//411 412//412 473//473
f 412//412 413//413 474//474
f 413//413 414//414 475//475
f 414//414 415//415 476//476
f 415//415 416//416 477//477
f 416//416 417//417 478//478
f 417//417 418//418 479//479
f 418//418 419//419 480//480
f 419//419 420//420 481//481
f 420//420 421//421 482//482
f 421//421 422//422 483//483
f 422//422 423//423 484//484
f 423//423 424//424 485//485
f 424//424 425//425 486//486
f 425//425 426//426 487//487
f 426//426 427//427 488//488
f 428//428 429//429 490//490
f 429//429 430//430 491//491
f 430//430 431//431 492//492
f 431//431 432//432 493//493
f 432//432 433//433 494//494
f 433//433 434//434 495//495
f 434//434 435//435 496//496
f 435//435 436//436 497//497
f 436//436 437//437 498//498
f 437//437 438//438 499//499
f 438//438 439//439 500//500
f 439//439 440//440 501//501
f 440//440 441//441 502//502
f 441//441 442//442 503//503
f 442//442 443//443 504//504
f 443//443 444//444 505//505
f 444//444 445//445 506//506
f 445//445 446//446 507//507
f 446//446 447//447 508//508
f 447//447 448//448 509//509
f 448//448 449//449 510//510
f 449//449 450//450 511//511
f 450//450 451//451 512//512
f 451//451 452//452 513//513
f 452//452 453//453 514//514
f 453//453 454//454 515//515
f 454//454 455//455 516//516
f 455//455 456//456 517//517
f 456//456 457//457 518//518
f 457//457 458//458 519//519
f 458//458 459//459 520//520
f 459//459 460//460 521//521
f 460//460 461//461 522//522
f 461//461 462//462 523//523
f 462//462 463//463 524//524
f 463//463 464//464 525//525
f 464//464 465//465 526//526
f 465//465 466//466 527//527
f 466//466 467//467 528//528
f 467//467 468//468 529//529
f 468//468 469//469 530//530
f 469//469 470//470 531//531
f 470//470 471//471 532//532
f 471//471 472//472 533//533
f 472//472 473//473 534//534
f 473//473 474//474 535//535
f 474//474 475//475 536//536
f 475//475 476//476 537//537
f 476//476 477//477 538//538
f 477//477 478//478 539//539
f 478//478 479//479 540//540
f 479//479 480//480 541//541
f 480//480 481//481 542//542
f 481//481 482//482 543//543
f 482//482 483//483 544//544
f 483//483 484//484 545//545
f 484//484 485//485 546//546
f 485//485 486//486 547//547
f 486//486 487//487 548//548
f 487//487 488//488 549//549
f 489//489 490//490 551//551
f 490//490 491//491 552//552
f 491//491 492//492 553//553
f 492//492 493//493 554//554
f 493//493 494//494 555//555
f 494//494 495//495 556//556
f 495//495 496//496 557//557
f 496//496 497//497 558//558
f 497//497 498//498 559//559
f 498//498 499//499 560//560
f 499//499 500//500 561//561
f 500//500 501//501 562//562
f 501//501 502//502 563//563
f 502//502 503//503 564//564
f 503//503 504//504 565//565
f 504//504 505//505 566//566
f 505//505 506//506 567//567
f 506//506 507//507 568//568
f 507//507 508//508 569//569
f 508//508 509//509 570//570
f 509//509 510//510 571//571
f 510//510 511//511 572//572
f 511//511 512//512 573//573
f 512//512 513//513 574//574
f 513//513 514//514 575//575
f 514//514 515//515 576//576
f 515//515 516//516 577//577
f 516//516 517//517 578//578
f 517//517 518//518 579//579
f 518//518 519//519 580//580
f 519//519 520//520 581//581
f 520//520 521//521 582//582
f 521//521 522//522 583//583
f 522//522 523//523 584//584
f 523//523 524//524 585//585
f 524//524 525//525 586//586
f 525//525 526//526 587//587
f 526//526 527//527 588//588
f 527//527 528//528 589//589
f 528//528 529//529 590//590
f 529//529 530//530 591//591
f 530//530 531//531 592//592
f 531//531 532//532 593//593
f 532//532 533//533 594//594
f 533//533 534//534 595//595
f 534//534 535//535 596//596
f 535//535 536//536 597//597
f 536//536 537//537 598//598
f 537//537 538//538 599//599
f 538//538 539//539 600//600
f 539//539 540//540 601//601
f 540//540 541//541 602//602
f 541//541 542//542 603//603
f 542//542 543//543 604//604
f 543//543 544//544 605//605
f 544//544 545//545 606//606
f 545//545 546//546 607//607
f 546//546 547//547 608//608
f 547//547 548//548 609//609
f 548//548 549//549 610//610
f 550//550 551//551 612//612
f 551//551 552//552 613//613
f 552//552 553//553 614//614
f 553//553 554//554 615//615
f 554//554 555//555 616//616
f 555//555 556//556 617//617
f 556//556 557//557 618//618
f 557//557 558//558 619//619
f 558//558 559//559 620//620
f 559//559 560//560 621//621
f 560//560 561//561 622//622
f 561//561 562//562 623//623
f 562//562 563//563 624//624
f 563//563 564//564 625//625
f 564//564 565//565 626//626
f 565//565 566//566 627//627
f 566//566 567//567 628//628
f 567//567 568//568 629//629
f 568//568 569//569 630//630
f 569//569 570//570 631//631
f 570//570 571//571 632//632
f 571//571 572//572 633//633
f 572//572 573//573 634//634
f 573//573 574//574 635//635
f 574//574 575//575 636//636
f 575//575 576//576 637//637
f 576//576 577//577 638//638
f 577//577 578//578 639//639
f 578//578 579//579 640//640
f 579//579 580//580 641//641
f 580//580 581//581 642//642
f 581//581 582//582 643//643
f 582//582 583//583 644//644
f 583//583 584//584 645//645
f 584//584 585//585 646//646
f 585//585 586//586 647//647
f 586//586 587//587 648//648
f 587//587 588//588 649//649
f 588//588 589//589 650//650
f 589//589 590//590 651//651
f 590//590 591//591 652//652
f 591//591 592//592 653//653
f 592//592 593//593 654//654
f 593//593 594//594 655//655
f 594//594 595//595 656//656
f 595//595 596//596 657//657
f 596//596 597//597 658//658
f 597//597 598//598 659//659
f 598//598 599//599 660//660
f 599//599 600//600 661//661
f 600//600 601//601 662//662
f 601//601 602//602 663//663
f 602//602 603//603 664//664
f 603//603 604//604 665//665
f 604//604 605//605 666//666
f 605//605 606//606 667//667
f 606//606 607//607 668//668
f 607//607 608//608 669//669
f 608//608 609//609 670//670
f 609//609 610//610 671//671
f 611//611 612//612 673//673
f 612//612 613//613 674//674
f 613//613 614//614 675//675
f 614//614 615//615 676//676
f 615//615 616//616 677//677
f 616//616 617//617 678//678
f 617//617 618//618 679//679
f 618//618 619//619 680//680
f 619//619 620//620 681//681
f 620//620 621//621 682//682
f 621//621 622//622 683//683
f 622//622 623//623 684//684
f 623//623 624//624 685//685
f 624//624 625//625 686//686
f 625//625 626//626 687//687
f 626//626 627//627 688//688
f 627//627 628//628 689//689
f 628//628 629//629 690//690
f 629//629 630//630 691//691
f 630//630 631//631 692//692
f 631//631 632//632 693//693
f 632//632 633//633 694//694
f 633//633 634//634 695//695
f 634//634 635//635 696//696
f 635//635 636//636 697//697
f 636//636 637//637 698//698
f 637//637 638//638 699//699
f 638//638 639//639 700//700
f 639//639 640//640 701//701
f 640//640 641//641 702//702
f 641//641 642//642 703//703
f 642//642 643//643 704//704
f 643//643 644//644 705//705
f 644//644 645//645 706//706
f 645//645 646//646 707//707
f 646//646 647//647 708//708
f 647//647 648//648 709//709
f 648//648 649//649 710//710
f 649//649 650//650 711//711
f 650//650 651//651 712//712
f 651//651 652//652 713//713
f 652//652 653//653 714//714
f 653//653 654//654 715//715
f 654//654 655//655 716//716
f 655//655 656//656 717//717
f 656//656 657//657 718//718
f 657//657 658//658 719//719
f 658//658 659//659 720//720
f 659//659 660//660 721//721
f 660//660 661//661 722//722
f 661//661 662//662 723//723
f 662//662 663//663 724//724
f 663//663 664//664 725//725
f 664//664 665//665 726//726
f 665//665 666//666 727//727
f 666//666 667//667 728//728
f 667//667 668//668 729//729
f 668//668 669//669 730//730
f 669//669 670//670 731//731
f 670//670 671//671 732//732
f 672//672 673//673 734//734
f 673//673 674//674 735//735
f 674//674 675//675 736//736
f 675//675 676//676 737//737
f 676//676 677//677 738//738
f 677//677 678//678 739//739
f 678//678 679//679 740//740
f 679//679 680//680 741//741
f 680//680 681//681 742//742
f 681//681 682//682 743//743
f 682//682 683//683 744//744
f 683//683 684//684 745//745
f 684//684 685//685 746//746
f 685//685 686//686 747//747
f 686//686 687//687 748//748
f 687//687 688//688 749//749
f 688//688 689//689 750//750
f 689//689 690//690 751//751
f 690//690 691//691 752//752
f 691//691 692//692 753//753
f 692//692 693//693 754//754
f 693//693 694//694 755//755
f 694//694 695//695 756//756
f 695//695 696//696 757//757
f 696//696 697//697 758//758
f 697//697 698//698 759//759
f 698//698 699//699 760//760
f 699//699 700//700 761//761
f 700//700 701//701 762//762
f 701//701 702//702 763//763
f 702//702 703//703 764//764
f 703//703 704//704 765//765
f 704//704 705//705 766//766
f 705//705 706//706 767//767
f 706//706 707//707 768//768
f 707//707 708//708 769//769
f 708//708 709//709 770//770
f 709//709 710//710 771//771
f 710//710 711//711 772//772
f 711//711 712//712 773//773
f 712//712 713//713 774//774
f 713//713 714//714 775//775
f 714//714 715//715 776//776
f 715//715 716//716 777//777
f 716//716 717//717 778//778
f 717//717 718//718 779//779
f 718//718 719//719 780//780
f 719//719 720//720 781//781
f 720//720 721//721 782//782
f 721//721 722//722 783//783
f 722//722 723//723 784//784
f 723//723 724//724 785//785
f 724//724 725//725 786//786
f 725//725 726//726 787//787
f 726//726 727//727 788//788
f 727//727 728//728 789//789
f 728//728 729//729 790//790
f 729//729 730//730 791//791
f 730//730 731//731 792//792
f 731//731 732//732 793//793
f 1//1 63//63 62//62
f 2//2 64//64 63//63
f 3//3 65//65 64//64
f 4//4 66//66 65//65
f 5//5 67//67 66//66
f 6//6 68//68 67//67
f 7//7 69//69 68//68
f 8//8 70//70 69//69
f 9//9 71//71 70//70
f 10//10 72//72 71//71
f 11//11 73//73 72//72
f 12//12 74//74 73//73
f 13//13 75//75 74//74
f 14//14 76//76 75//75
f 15//15 77//77 76//76
f 16//16 78//78 77//77
f 17//17 79//79 78//78
f 18//18 80//80 79//79
f 19//19 81//81 80//80
f 20//20 82//82 81//81
f 21//21 83//83 82//82
f 22//22 84//84 83//83
f 23//23 85//85 84//84
f 24//24 86//86 85//85
f 25//25 87//87 86//86
f 26//26 88//88 87//87
f 27//27 89//89 88//88
f 28//28 90//90 89//89
f 29//29 91//91 90//90
f 30//30 92//92 91//91
f 31//31 93//93 92//92
f 32//32 94//94 93//93
f 33//33 95//95 94//94
f 34//34 96//96 95//95
f 35//35 97//97 96//96
f 36//36 98//98 97//97
f 37//37 99//99 98//98
f 38//38 100//100 99//99
f 39//39 101//101 100//100
f 40//40 102//102 101//101
f 41//41 103//103 102//102
f 42//42 104//104 103//103
f 43//43 105//105 104//104
f 44//44 106//106 105//105
f 45//45 107//107 106//106
f 46//46 108//108 107//107
f 47//47 109//109 108//108
f 48//48 110//110 109//109
f 49//49 111//111 110//110
f 50//50 112//112 111//111
f 51//51 113//113 112//112
f 52//52 114//114 113//113
f 53//53 115//115 114//114
f 54//54 116//116 115//115
f 55//55 117//117 116//116
f 56//56 118//118 117//117
f 57//57 119//119 118//118
f 58//58 120//120 119//119
f 59//59 121//121 120//120
f 60//60 122//122 121//121
f 62//62 124//124 123//123
f 63//63 125//125 124//124
f 64//64 126//126 125//125
f 65//65 127//127 126//126
f 66//66 128//128 127//127
f 67//67 129//129 128//128
f 68//68 130//130 129//129
f 69//69 131//131 130//130
f 70//70 132//132 131//131
f 71//71 133//133 132//132
f 72//72 134//134 133//133
f 73//73 135//135 134//134
f 74//74 136//136 135//135
f 75//75 137//137 136//136
f 76//76 138//138 137//137
f 77//77 139//139 138//138
f 78//78 140//140 139//139
f 79//79 141//141 140//140
f 80//80 142//142 141//141
f 81//81 143//143 142//142
f 82//82 144//144 143//143
f 83//83 145//145 144//144
f 84//84 146//146 145//145
f 85//85 147//147 146//146
f 86//86 148//148 147//147
f 87//87 149//149 148//148
f 88//88 150//150 149//149
f 89//89 151//151 150//150
f 90//90 152//152 151//151
f 91//91 153//153 152//152
f 92//92 154//154 153//153
f 93//93 155//155 154//154
f 94//94 156//156 155//155
f 95//95 157//157 156//156
f 96//96 158//158 157//157
f 97//97 159//159 158//158
f 98//98 160//160 159//159
f 99//99 161//161 160//160
f 100//100 162//162 161//161
f 101//101 163//163 162//162
f 102//102 164//164 163//163
f 103//103 165//165 164//164
f 104//104 166//166 165//165
f 105//105 167//167 166//166
f 106//106 168//168 167//167
f 107//107 169//169 168//168
f 108//108 170//170 169//169
f 109//109 171//171 170//170
f 110//110 172//172 171//171
f 111//111 173//173 172//172
f 112//112 174//174 173//173
f 113//113 175//175 174//174
f 114//114 176//176 175//175
f 115//115 177//177 176//176
f 116//116 178//178 177//177
f 117//117 179//179 178//178
f 118//118 180//180 179//179
f 119//119 181//181 180//180
f 120//120 182//182 181//181
f 121//121 183//183 182//182
f 123//123 185//185 184//184
f 124//124 186//186 185//185
f 125//125 187//187 186//186
f 126//126 188//188 187//187
f 127//127 189//189 188//188
f 128//128 190//190 189//189
f 129//129 191//191 190//190
f 130//130 192//192 191//191
f 131//131 193//193 192//192
f 132//132 194//194 193//193
f 133//133 195//195 194//194
f 134//134 196//196 195//195
f 135//135 197//197 196//196
f 136//136 198//198 197//197
f 137//137 199//199 198//198
f 138//138 200//200 199//199
f 139//139 201//201 200//200
f 140//140 202//202 201//201
f 141//141 203//203 202//202
f 142//142 204//204 203//203
f 143//143 205//205 204//204
f 144//144 206//206 205//205
f 145//145 207//207 206//206
f 146//146 208//208 207//207
f 147//147 209//209 208//208
f 148//148 210//210 209//209
f 149//149 211//211 210//210
f 150//150 212//212 211//211
f 151//151 213//213 212//212
f 152//152 214//214 213//213
f 153//153 215//215 214//214
f 154//154 216//216 215//215
f 155//155 217//217 216//216
f 156//156 218//218 217//217
f 157//157 219//219 218//218
f 158//158 220//220 219//219
f 159//159 221//221 220//220
f 160//160 222//222 221//221
f 161//161 223//223 222//222
f 162//162 224//224 223//223
f 163//163 225//225 224//224
f 164//164 226//226 225//225
f 165//165 227//227 226//226
f 166//166 228//228 227//227
f 167//167 229//229 228//228
f 168//168 230//230 229//229
f 169//169 231//231 230//230
f 170//170 232//232 231//231
f 171//171 233//233 232//232
f 172//172 234//234 233//233
f 173//173 235//235 234//234
f 174//174 236//236 235//235
f 175//175 237//237 236//236
f 176//176 238//238 237//237
f 177//177 239//239 238//238
f 178//178 240//240 239//239
f 179//179 241//241 240//240
f 180//180 242//242 241//241
f 181//181 243//243 242//242
f 182//182 244//244 243//243
f 184//184 246//246 245//245
f 185//185 247//247 246//246
f 186//186 248//248 247//247
f 187//187 249//249 248//248
f 188//188 250//250 249//249
f 189//189 251//251 250//250
f 190//190 252//252 251//251
f 191//191 253//253 252//252
f 192//192 254//254 253//253
f 193//193 255//255 254//254
f 194//194 256//256 255//255
f 195//195 257//257 256//256
f 196//196 258//258 257//257
f 197//197 259//259 258//258
f 198//198 260//260 259//259
f 199//199 261//261 260//260
f 200//200 262//262 261//261
f 201//201 263//263 262//262
f 202//202 264//264 263//263
f 203//203 265//265 264//264
f 204//204 266//266 265//265
f 205//205 267//267 266//266
f 206//206 268//268 267//267
f 207//207 269//269 268//268
f 208//208 270//270 269//269
f 209//209 271//271 270//270
f 210//210 272//272 271//271
f 211//211 273//273 272//272
f 212//212 274//274 273//273
f 213//213 275//275 274//274
f 214//214 276//276 275//275
f 215//215 277//277 276//276
f 216//216 278//278 277//277
f 217//217 279//279 278//278
f 218//218 280//280 279//279
f 219//219 281//281 280//280
f 220//220 282//282 281//281
f 221//221 283//283 282//282
f 222//222 284//284 283//283
f 223//223 285//285 284//284
f 224//224 286//286 285//285
f 225//225 287//287 286//286
f 226//226 288//288 287//287
f 227//227 289//289 288//288
f 228//228 290//290 289//289
f 229//229 291//291 290//290
f 230//230 292//292 291//291
f 231//231 293//293 292//292
f 232//232 294//294 293//293
f 233//233 295//295 294//294
f 234//234 296//296 295//295
f 235//235 297//297 296//296
f 236//236 298//298 297//297
f 237//237 299//299 298//298
f 238//238 300//300 299//299
f 239//239 301//301 300//300
f 240//240 302//302 301//301
f 241//241 303//303 302//302
f 242//242 304//304 303//303
f 243//243 305//305 304//304
f 245//245 307//307 306//306
f 246//246 308//308 307//307
f 247//247 309//309 308//308
f 248//248 310//310 309//309
f 249//249 311//311 310//310
f 250//250 312//312 311//311
f 251//251 313//313 312//312
f 252//252 314//314 313//313
f 253//253 315//315 314//314
f 254//254 316//316 315//315
f 255//255 317//317 316//316
f 256//256 318//318 317//317
f 257//257 319//319 318//318
f 258//258 320//320 319//319
f 259//259 321//321 320//320
f 260//260 322//322 321//321
f 261//261 323//323 322//322
f 262//262 324//324 323//323
f 263//263 325//325 324//324
f 264//264 326//326 325//325
f 265//265 327//327 326//326
f 266//266 328//328 327//327
f 267//267 329//329 328//328
f 268//268 330//330 329//329
f 269//269 331//331 330//330
f 270//270 332//332 331//331
f 271//271 333//333 332//332
f 272//272 334//334 333//333
f 273//273 335//335 334//334
f 274//274 336//336 335//335
f 275//275 337//337 336//336
f 276//276 338//338 337//337
f 277//277 339//339 338//338
f 278//278 340//340 339//339
f 279//279 341//341 340//340
f 280//280 342//342 341//341
f 281//281 343//343 342//342
f 282//282 344//344 343//343
f 283//283 345//345 344//344
f 284//284 346//346 345//345
f 285//285 347//347 346//346
f 286//286 348//348 347//347
f 287//287 349//349 348//348
f 288//288 350//350 349//349
f 289//289 351//351 350//350
f 290//290 352//352 351//351
f 291//291 353//353 352//352
f 292//292 354//354 353//353
f 293//293 355//355 354//354
f 294//294 356//356 355//355
f 295//295 357//357 356//356
f 296//296 358//358 357//357
f 297//297 359//359 358//358
f 298//298 360//360 359//359
f 299//299 361//361 360//360
f 300//300 362//362 361//361
f 301//301 363//363 362//362
f 302//302 364//364 363//363
f 303//303 365//365 364//364
f 304//304 366//366 365//365
f 306//306 368//368 367//367
f 307//307 369//369 368//368
f 308//308 370//370 369//369
f 309//309 371//371 370//370
f 310//310 372//372 371//371
f 311//311 373//373 372//372
f 312//312 374//374 373//373
f 313//313 375//375 374//374
f 314//314 376//376 375//375
f 315//315 377//377 376//376
f 316//316 378//378 377//377
f 317//317 379//379 378//378
f 318//318 380//380 379//379
f 319//319 381//381 380//380
f 320//320 382//382 381//381
f 321//321 383//383 382//382
f 322//322 384//384 383//383
f 323//323 385//385 384//384
f 324//324 386//386 385//385
f 325//325 387//387 386//386
f 326//326 388//388 387//387
f 327//327 389//389 388//388
f 328//328 390//390 389//389
f 329//329 391//391 390//390
f 330//330 392//392 391//391
f 331//331 393//393 392//392
f 332//332 394//394 393//393
f 333//333 395//395 394//394
f 334//334 396//396 395//395
f 335//335 397//397 396//396
f 336//336 398//398 397//397
f 337//337 399//399 398//398
f 338//338 400//400 399//399
f 339//339 401//401 400//400
f 340//340 402//402 401//401
f 341//341 403//403 402//402
f 342//342 404//404 403//403
f 343//343 405//405 404//404
f 344//344 406//406 405//405
f 345//345 407//407 406//406
f 346//346 408//408 407//407
f 347//347 409//409 408//408
f 348//348 410//410 409//409
f 349//349 411//411 410//410
f 350//350 412//412 411//411
f 351//351 413//413 412//412
f 352//352 414//414 413//413
f 353//353 415//415 414//414
f 354//354 416//416 415//415
f 355//355 417//417 416//416
f 356//356 418//418 417//417
f 357//357 419//419 418//418
f 358//358 420//420 419//419
f 359//359 421//421 420//420
f 360//360 422//422 421//421
f 361//361 423//423 422//422
f 362//362 424//424 423//423
f 363//363 425//425 424//424
f 364//364 426//426 425//425
f 365//365 427//427 426//426
f 367//367 429//429 428//428
f 368//368 430//430 429//429
f 369//369 431//431 430//430
f 370//370 432//432 431//431
f 371//371 433//433 432//432
f 372//372 434//434 433//433
f 373//373 435//435 434//434
f 374//374 436//436 435//435
f 375//375 437//437 436//436
f 376//376 438//438 437//437
f 377//377 439//439 438//438
f 378//378 440//440 439//439
f 379//379 441//441 440//440
f 380//380 442//442 441//441
f 381//381 443//443 442//442
f 382//382 444//444 443//443
f 383//383 445//445 444//444
f 384//384 446//446 445//445
f 385//385 447//447 446//446
f 386//386 448//448 447//447
f 387//387 449//449 448//448
f 388//388 450//450 449//449
f 389//389 451//451 450//450
f 390//390 452//452 451//451
f 391//391 453//453 452//452
f 392//392 454//454 453//453
f 393//393 455//455 454//454
f 394//394 456//456 455//455
f 395//395 457//457 456//456
f 396//396 458//458 457//457
f 397//397 459//459 458//458
f 398//398 460//460 459//459
f 399//399 461//461 460//460
f 400//400 462//462 461//461
f 401//401 463//463 462//462
f 402//402 464//464 463//463
f 403//403 465//465 464//464
f 404//404 466//466 465//465
f 405//405 467//467 466//466
f 406//406 468//468 467//467
f 407//407 469//469 468//468
f 408//408 470//470 469//469
f 409//409 471//471 470//470
f 410//410 472//472 471//471
f 411//411 473//473 472//472
f 412//412 474//474 473//473
f 413//413 475//475 474//474
f 414//414 476//476 475//475
f 415//415 477//477 476//476
f 416//416 478//478 477//477
f 417//417 479//479 478//478
f 418//418 480//480 479//479
f 419//419 481//481 480//480
f 420//420 482//482 481//481
f 421//421 483//483 482//482
f 422//422 484//484 483//483
f 423//423 485//485 484//484
f 424//424 486//486 485//485
f 425//425 487//487 486//486
f 426//426 488//488 487//487
f 428//428 490//490 489//489
f 429//429 491//491 490//490
f 430//430 492//492 491//491
f 431//431 493//493 492//492
f 432//432 494//494 493//493
f 433//433 495//495 494//494
f 434//434 496//496 495//495
f 435//435 497//497 496//496
f 436//436 498//498 497//497
f 437//437 499//499 498//498
f 438//438 500//500 499//499
f 439//439 501//501 500//500
f 440//440 502//502 501//501
f 441//441 503//503 502//502
f 442//442 504//504 503//503
f 443//443 505//505 504//504
f 444//444 506//506 505//505
f 445//445 507//507 506//506
f 446//446 508//508 507//507
f 447//447 509//509 508//508
f 448//448 510//510 509//509
f 449//449 511//511 510//510
f 450//450 512//512 511//511
f 451//451 513//513 512//512
f 452//452 514//514 513//513
f 453//453 515//515 514//514
f 454//454 516//516 515//515
f 455//455 517//517 516//516
f 456//456 518//518 517//517
f 457//457 519//519 518//518
f 458//458 520//520 519//519
f 459//459 521//521 520//520
f 460//460 522//522 521//521
f 461//461 523//523 522//522
f 462//462 524//524 523//523
f 463//463 525//525 524//524
f 464//464 526//526 525//525
f 465//465 527//527 526//526
f 466//466 528//528 527//527
f 467//467 529//529 528//528
f 468//468 530//530 529//529
f 469//469 531//531 530//530
f 470//470 532//532 531//531
f 471//471 533//533 532//532
f 472//472 534//534 533//533
f 473//473 535//535 534//534
f 474//474 536//536 535//535
f 475//475 537//537 536//536
f 476//476 538//538 537//537
f 477//477 539//539 538//538
f 478//478 540//540 539//539
f 479//479 541//541 540//540
f 480//480 542//542 541//541
f 481//481 543//543 542//542
f 482//482 544//544 543//543
f 483//483 545//545 544//544
f 484//484 546//546 545//545
f 485//485 547//547 546//546
f 486//486 548//548 547//547
f 487//487 549//549 548//548
f 489//489 551//551 550//550
f 490//490 552//552 551//551
f 491//491 553//553 552//552
f 492//492 554//554 553//553
f 493//493 555//555 554//554
f 494//494 556//556 555//555
f 495//495 557//557 556//556
f 496//496 558//558 557//557
f 497//497 559//559 558//558
f 498//498 560//560 559//559
f 499//499 561//561 560//560
f 500//500 562//562 561//561
f 501//501 563//563 562//562
f 502//502 564//564 563//563
f 503//503 565//565 564//564
f 504//504 566//566 565//565
f 505//505 567//567 566//566
f 506//506 568//568 567//567
f 507//507 569//569 568//568
f 508//508 570//570 569//569
f 509//509 571//571 570//570
f 510//510 572//572 571//571
f 511//511 573//573 572//572
f 512//512 574//574 573//573
f 513//513 575//575 574//574
f 514//514 576//576 575//575
f 515//515 577//577 576//576
f 516//516 578//578 577//577
f 517//517 579//579 578//578
f 518//518 580//580 579//579
f 519//519 581//581 580//580
f 520//520 582//582 581//581
f 521//521 583//583 582//582
f 522//522 584//584 583//583
f 523//523 585//585 584//584
f 524//524 586//586 585//585
f 525//525 587//587 586//586
f 526//526 588//588 587//587
f 527//527 589//589 588//588
f 528//528 590//590 589//589
f 529//529 591//591 590//590
f 530//530 592//592 591//591
f 531//531 593//593 592//592
f 532//532 594//594 593//593
f 533//533 595//595 594//594
f 534//534 596//596 595//595
f 535//535 597//597 596//596
f 536//536 598//598 597//597
f 537//537 599//599 598//598
f 538//538 600//600 599//599
f 539//539 601//601 600//600
f 540//540 602//602 601//601
f 541//541 603//603 602//602
f 542//542 604//604 603//603
f 543//543 605//605 604//604
f 544//544 606//606 605//605
f 545//545 607//607 606//606
f 546//546 608//608 607//607
f 547//547 609//609 608//608
f 548//548 610//610 609//609
f 550//550 612//612 611//611
f 551//551 613//613 612//612
f 552//552 614//614 613//613
f 553//553 615//615 614//614
f 554//554 616//616 615//615
f 555//555 617//617 616//616
f 556//556 618//618 617//617
f 557//557 619//619 618//618
f 558//558 620//620 619//619
f 559//559 621//621 620//620
f 560//560 622//622 621//621
f 561//561 623//623 622//622
f 562//562 624//624 623//623
f 563//563 625//625 624//624
f 564//564 626//626 625//625
f 565//565 627//627 626//626
f 566//566 628//628 627//627
f 567//567 629//629 628//628
f 568//568 630//630 629//629
f 569//569 631//631 630//630
f 570//570 632//632 631//631
f 571//571 633//633 632//632
f 572//572 634//634 633//633
f 573//573 635//635 634//634
f 574//574 636//636 635//635
f 575//575 637//637 636//636
f 576//576 638//638 637//637
f 577//577 639//639 638//638
f 578//578 640//640 639//639
f 579//579 641//641 640//640
f 580//580 642//642 641//641
f 581//581 643//643 642//642
f 582//582 644//644 643//643
f 583//583 645//645 644//644
f 584//584 646//646 645//645
f 585//585 647//647 646//646
f 586//586 648//648 647//647
f 587//587 649//649 648//648
f 588//588 650//650 649//649
f 589//589 651//651 650//650
f 590//590 652//652 651//651
f 591//591 653//653 652//652
f 592//592 654//654 653//653
f 593//593 655//655 654//654
f 594//594 656//656 655//655
f 595//595 657//657 656//656
f 596//596 658//658 657//657
f 597//597 659//659 658//658
f 598//598 660//660 659//659
f 599//599 661//661 660//660
f 600//600 662//662 661//661
f 601//601 663//663 662//662
f 602//602 664//664 663//663
f 603//603 665//665 664//664
f 604//604 666//666 665//665
f 605//605 667//667 666//666
f 606//606 668//668 667//667
f 607//607 669//669 668//668
f 608//608 670//670 669//669
f 609//609 671//671 670//670
f 611//611 673//673 672//672
f 612//612 674//674 673//673
f 613//613 675//675 674//674
f 614//614 676//676 675//675
f 615//615 677//677 676//676
f 616//616 678//678 677//677
f 617//617 679//679 678//678
f 618//618 680//680 679//679
f 619//619 681//681 680//680
f 620//620 682//682 681//681
f 621//621 683//683 682//682
f 622//622 684//684 683//683
f 623//623 685//685 684//684
f 624//624 686//686 685//685
f 625//625 687//687 686//686
f 626//626 688//688 687//687
f 627//627 689//689 688//688
f 628//628 690//690 689//689
f 629//629 691//691 690//690
f 630//630 692//692 691//691
f 631//631 693//693 692//692
f 632//632 694//694 693//693
f 633//633 695//695 694//694
f 634//634 696//696 695//695
f 635//635 697//697 696//696
f 636//636 698//698 697//697
f 637//637 699//699 698//698
f 638//638 700//700 699//699
f 639//639 701//701 700//700
f 640//640 702//702 701//701
f 641//641 703//703 702//702
f 642//642 704//704 703//703
f 643//643 705//705 704//704
f 644//644 706//706 705//705
f 645//645 707//707 706//706
f 646//646 708//708 707//707
f 647//647 709//709 708//708
f 648//648 710//710 709//709
f 649//649 711//711 710//710
f 650//650 712//712 711//711
f 651//651 713//713 712//712
f 652//652 714//714 713//713
f 653//653 715//715 714//714
f 654//654 716//716 715//715
f 655//655 717//717 716//716
f 656//656 718//718 717//717
f 657//657 719//719 718//718
f 658//658 720//720 719//719
f 659//659 721//721 720//720
f 660//660 722//722 721//721
f 661//661 723//723 722//722
f 662//662 724//724 723//723
f 663//663 725//725 724//724
f 664//664 726//726 725//725
f 665//665 727//727 726//726
f 666//666 728//728 727//727
f 667//667 729//729 728//728
f 668//668 730//730 729//729
f 669//669 731//731 730//730
f 670//670 732//732 731//731
f 672//672 734//734 733//733
f 673//673 735//735 734//734
f 674//674 736//736 735//735
f 675//675 737//737 736//736
f 676//676 738//738 737//737
f 677//677 739//739 738//738
f 678//678 740//740 739//739
f 679//679 741//741 740//740
f 680//680 742//742 741//741
f 681//681 743//743 742//742
f 682//682 744//744 743//743
f 683//683 745//745 744//744
f 684//684 746//746 745//745
f 685//685 747//747 746//746
f 686//686 748//748 747//747
f 687//687 749//749 748//748
f 688//688 750//750 749//749
f 689//689 751//751 750//750
f 690//690 752//752 751//751
f 691//691 753//753 752//752
f 692//692 754//754 753//753
f 693//693 755//755 754//754
f 694//694 756//756 755//755
f 695//695 757//757 756//756
f 696//696 758//758 757//757
f 697//697 759//759 758//758
f 698//698 760//760 759//759
f 699//699 761//761 760//760
f 700//700 762//762 761//761
f 701//701 763//763 762//762
f 702//702 764//764 763//763
f 703//703 765//765 764//764
f 704//704 766//766 765//765
f 705//705 767//767 766//766
f 706//706 768//768 767//767
f 707//707 769//769 768//768
f 708//708 770//770 769//769
f 709//709 771//771 770//770
f 710//710 772//772 771//771
f 711//711 773//773 772//772
f 712//712 774//774 773//773
f 713//713 775//775 774//774
f 714//714 776//776 775//775
f 715//715 777//777 776//776
f 716//716 778//778 777//777
f 717//717 779//779 778//778
f 718//718 780//780 779//779
f 719//719 781//781 780//780
f 720//720 782//782 781//781
f 721//721 783//783 782//782
f 722//722 784//784 783//783
f 723//723 785//785 784//784
f 724//724 786//786 785//785
f 725//725 787//787 786//786
f 726//726 788//788 787//787
f 727//727 789//789 788//788
f 728//728 790//790 789//789
f 729//729 791//791 790//790
f 730//730 792//792 791//791
f 731//731 793//793 792//792
